<?xml version="1.0" standalone="no"?>
  <!DOCTYPE svg PUBLIC "-//W3C//DTD SVG 1.1//EN" "http://www.w3.org/Graphics/SVG/1.1/DTD/svg11.dtd" >
  <svg>
  <metadata>
  Created by font-carrier
  </metadata>
  <defs>
  <font id="UniNeue-Trial-Book" horiz-adv-x="1160" vert-adv-y="1160" >
    <font-face
      
      font-family="Uni Neue-Trial Book"
      
      font-weight="400"
      
      font-stretch="normal"
      
      units-per-em="1000"
      
      ascent="1050"
      
      descent="-300"
      
    />
      <missing-glyph />

      

      
      <glyph glyph-name="unic1" unicode="&#xc1;" d="M148 691L126 691L126 607L148 607L148 637L234 637L234 661L148 661L148 691M126 591L126 568L192 568L126 521L126 499L234 499L234 522L166 522L234 572L234 591L126 591M180 365Q204 365 220.50 381.50Q237 398 237 423Q237 448 220.50 464.50Q204 481 180 481Q156 481 139.50 464.50Q123 448 123 423Q123 398 139.50 381.50Q156 365 180 365M180 457Q195 457 205 447.50Q215 438 215 423Q215 409 205 399Q195 389 180 389Q165 389 155.50 399Q146 409 146 423Q146 438 155.50 447.50Q165 457 180 457M148 313L148 355L126 355L126 290L234 290L234 313L193 313L193 351L171 351L171 313L148 313M213 242L213 200L126 200L126 176L234 176L234 242L213 242M214 129L234 137L234 163L126 119L126 96L234 54L234 79L214 86L214 129M193 94L154 108L193 122L193 94M126 16L126 40L234 40L234 16L126 16M234-26L234 0L193-24Q183-4 162-4Q146-4 136-14.50Q126-25 126-42L126-86L234-86L234-63L197-63L197-47L234-26M147-44Q147-37 151-32.50Q155-28 161-28Q168-28 172-32.50Q176-37 176-44L176-63L147-63L147-44M126-102L148-102L148-132L234-132L234-156L148-156L148-186L126-186L126-102Z"  horiz-adv-x="357" vert-adv-y="1000"  />

      
      <glyph glyph-name="uni0102" unicode="&#x0102;" d="M148 691L126 691L126 607L148 607L148 637L234 637L234 661L148 661L148 691M126 591L126 568L192 568L126 521L126 499L234 499L234 522L166 522L234 572L234 591L126 591M180 365Q204 365 220.50 381.50Q237 398 237 423Q237 448 220.50 464.50Q204 481 180 481Q156 481 139.50 464.50Q123 448 123 423Q123 398 139.50 381.50Q156 365 180 365M180 457Q195 457 205 447.50Q215 438 215 423Q215 409 205 399Q195 389 180 389Q165 389 155.50 399Q146 409 146 423Q146 438 155.50 447.50Q165 457 180 457M148 313L148 355L126 355L126 290L234 290L234 313L193 313L193 351L171 351L171 313L148 313M213 242L213 200L126 200L126 176L234 176L234 242L213 242M214 129L234 137L234 163L126 119L126 96L234 54L234 79L214 86L214 129M193 94L154 108L193 122L193 94M126 16L126 40L234 40L234 16L126 16M234-26L234 0L193-24Q183-4 162-4Q146-4 136-14.50Q126-25 126-42L126-86L234-86L234-63L197-63L197-47L234-26M147-44Q147-37 151-32.50Q155-28 161-28Q168-28 172-32.50Q176-37 176-44L176-63L147-63L147-44M126-102L148-102L148-132L234-132L234-156L148-156L148-186L126-186L126-102Z"  horiz-adv-x="357" vert-adv-y="1000"  />

      
      <glyph glyph-name="unic2" unicode="&#xc2;" d="M148 691L126 691L126 607L148 607L148 637L234 637L234 661L148 661L148 691M126 591L126 568L192 568L126 521L126 499L234 499L234 522L166 522L234 572L234 591L126 591M180 365Q204 365 220.50 381.50Q237 398 237 423Q237 448 220.50 464.50Q204 481 180 481Q156 481 139.50 464.50Q123 448 123 423Q123 398 139.50 381.50Q156 365 180 365M180 457Q195 457 205 447.50Q215 438 215 423Q215 409 205 399Q195 389 180 389Q165 389 155.50 399Q146 409 146 423Q146 438 155.50 447.50Q165 457 180 457M148 313L148 355L126 355L126 290L234 290L234 313L193 313L193 351L171 351L171 313L148 313M213 242L213 200L126 200L126 176L234 176L234 242L213 242M214 129L234 137L234 163L126 119L126 96L234 54L234 79L214 86L214 129M193 94L154 108L193 122L193 94M126 16L126 40L234 40L234 16L126 16M234-26L234 0L193-24Q183-4 162-4Q146-4 136-14.50Q126-25 126-42L126-86L234-86L234-63L197-63L197-47L234-26M147-44Q147-37 151-32.50Q155-28 161-28Q168-28 172-32.50Q176-37 176-44L176-63L147-63L147-44M126-102L148-102L148-132L234-132L234-156L148-156L148-186L126-186L126-102Z"  horiz-adv-x="357" vert-adv-y="1000"  />

      
      <glyph glyph-name="unic4" unicode="&#xc4;" d="M148 691L126 691L126 607L148 607L148 637L234 637L234 661L148 661L148 691M126 591L126 568L192 568L126 521L126 499L234 499L234 522L166 522L234 572L234 591L126 591M180 365Q204 365 220.50 381.50Q237 398 237 423Q237 448 220.50 464.50Q204 481 180 481Q156 481 139.50 464.50Q123 448 123 423Q123 398 139.50 381.50Q156 365 180 365M180 457Q195 457 205 447.50Q215 438 215 423Q215 409 205 399Q195 389 180 389Q165 389 155.50 399Q146 409 146 423Q146 438 155.50 447.50Q165 457 180 457M148 313L148 355L126 355L126 290L234 290L234 313L193 313L193 351L171 351L171 313L148 313M213 242L213 200L126 200L126 176L234 176L234 242L213 242M214 129L234 137L234 163L126 119L126 96L234 54L234 79L214 86L214 129M193 94L154 108L193 122L193 94M126 16L126 40L234 40L234 16L126 16M234-26L234 0L193-24Q183-4 162-4Q146-4 136-14.50Q126-25 126-42L126-86L234-86L234-63L197-63L197-47L234-26M147-44Q147-37 151-32.50Q155-28 161-28Q168-28 172-32.50Q176-37 176-44L176-63L147-63L147-44M126-102L148-102L148-132L234-132L234-156L148-156L148-186L126-186L126-102Z"  horiz-adv-x="357" vert-adv-y="1000"  />

      
      <glyph glyph-name="unic0" unicode="&#xc0;" d="M148 691L126 691L126 607L148 607L148 637L234 637L234 661L148 661L148 691M126 591L126 568L192 568L126 521L126 499L234 499L234 522L166 522L234 572L234 591L126 591M180 365Q204 365 220.50 381.50Q237 398 237 423Q237 448 220.50 464.50Q204 481 180 481Q156 481 139.50 464.50Q123 448 123 423Q123 398 139.50 381.50Q156 365 180 365M180 457Q195 457 205 447.50Q215 438 215 423Q215 409 205 399Q195 389 180 389Q165 389 155.50 399Q146 409 146 423Q146 438 155.50 447.50Q165 457 180 457M148 313L148 355L126 355L126 290L234 290L234 313L193 313L193 351L171 351L171 313L148 313M213 242L213 200L126 200L126 176L234 176L234 242L213 242M214 129L234 137L234 163L126 119L126 96L234 54L234 79L214 86L214 129M193 94L154 108L193 122L193 94M126 16L126 40L234 40L234 16L126 16M234-26L234 0L193-24Q183-4 162-4Q146-4 136-14.50Q126-25 126-42L126-86L234-86L234-63L197-63L197-47L234-26M147-44Q147-37 151-32.50Q155-28 161-28Q168-28 172-32.50Q176-37 176-44L176-63L147-63L147-44M126-102L148-102L148-132L234-132L234-156L148-156L148-186L126-186L126-102Z"  horiz-adv-x="357" vert-adv-y="1000"  />

      
      <glyph glyph-name="uni0100" unicode="&#x0100;" d="M148 691L126 691L126 607L148 607L148 637L234 637L234 661L148 661L148 691M126 591L126 568L192 568L126 521L126 499L234 499L234 522L166 522L234 572L234 591L126 591M180 365Q204 365 220.50 381.50Q237 398 237 423Q237 448 220.50 464.50Q204 481 180 481Q156 481 139.50 464.50Q123 448 123 423Q123 398 139.50 381.50Q156 365 180 365M180 457Q195 457 205 447.50Q215 438 215 423Q215 409 205 399Q195 389 180 389Q165 389 155.50 399Q146 409 146 423Q146 438 155.50 447.50Q165 457 180 457M148 313L148 355L126 355L126 290L234 290L234 313L193 313L193 351L171 351L171 313L148 313M213 242L213 200L126 200L126 176L234 176L234 242L213 242M214 129L234 137L234 163L126 119L126 96L234 54L234 79L214 86L214 129M193 94L154 108L193 122L193 94M126 16L126 40L234 40L234 16L126 16M234-26L234 0L193-24Q183-4 162-4Q146-4 136-14.50Q126-25 126-42L126-86L234-86L234-63L197-63L197-47L234-26M147-44Q147-37 151-32.50Q155-28 161-28Q168-28 172-32.50Q176-37 176-44L176-63L147-63L147-44M126-102L148-102L148-132L234-132L234-156L148-156L148-186L126-186L126-102Z"  horiz-adv-x="357" vert-adv-y="1000"  />

      
      <glyph glyph-name="uni0104" unicode="&#x0104;" d="M148 691L126 691L126 607L148 607L148 637L234 637L234 661L148 661L148 691M126 591L126 568L192 568L126 521L126 499L234 499L234 522L166 522L234 572L234 591L126 591M180 365Q204 365 220.50 381.50Q237 398 237 423Q237 448 220.50 464.50Q204 481 180 481Q156 481 139.50 464.50Q123 448 123 423Q123 398 139.50 381.50Q156 365 180 365M180 457Q195 457 205 447.50Q215 438 215 423Q215 409 205 399Q195 389 180 389Q165 389 155.50 399Q146 409 146 423Q146 438 155.50 447.50Q165 457 180 457M148 313L148 355L126 355L126 290L234 290L234 313L193 313L193 351L171 351L171 313L148 313M213 242L213 200L126 200L126 176L234 176L234 242L213 242M214 129L234 137L234 163L126 119L126 96L234 54L234 79L214 86L214 129M193 94L154 108L193 122L193 94M126 16L126 40L234 40L234 16L126 16M234-26L234 0L193-24Q183-4 162-4Q146-4 136-14.50Q126-25 126-42L126-86L234-86L234-63L197-63L197-47L234-26M147-44Q147-37 151-32.50Q155-28 161-28Q168-28 172-32.50Q176-37 176-44L176-63L147-63L147-44M126-102L148-102L148-132L234-132L234-156L148-156L148-186L126-186L126-102Z"  horiz-adv-x="357" vert-adv-y="1000"  />

      
      <glyph glyph-name="unic5" unicode="&#xc5;" d="M148 691L126 691L126 607L148 607L148 637L234 637L234 661L148 661L148 691M126 591L126 568L192 568L126 521L126 499L234 499L234 522L166 522L234 572L234 591L126 591M180 365Q204 365 220.50 381.50Q237 398 237 423Q237 448 220.50 464.50Q204 481 180 481Q156 481 139.50 464.50Q123 448 123 423Q123 398 139.50 381.50Q156 365 180 365M180 457Q195 457 205 447.50Q215 438 215 423Q215 409 205 399Q195 389 180 389Q165 389 155.50 399Q146 409 146 423Q146 438 155.50 447.50Q165 457 180 457M148 313L148 355L126 355L126 290L234 290L234 313L193 313L193 351L171 351L171 313L148 313M213 242L213 200L126 200L126 176L234 176L234 242L213 242M214 129L234 137L234 163L126 119L126 96L234 54L234 79L214 86L214 129M193 94L154 108L193 122L193 94M126 16L126 40L234 40L234 16L126 16M234-26L234 0L193-24Q183-4 162-4Q146-4 136-14.50Q126-25 126-42L126-86L234-86L234-63L197-63L197-47L234-26M147-44Q147-37 151-32.50Q155-28 161-28Q168-28 172-32.50Q176-37 176-44L176-63L147-63L147-44M126-102L148-102L148-132L234-132L234-156L148-156L148-186L126-186L126-102Z"  horiz-adv-x="357" vert-adv-y="1000"  />

      
      <glyph glyph-name="unic3" unicode="&#xc3;" d="M148 691L126 691L126 607L148 607L148 637L234 637L234 661L148 661L148 691M126 591L126 568L192 568L126 521L126 499L234 499L234 522L166 522L234 572L234 591L126 591M180 365Q204 365 220.50 381.50Q237 398 237 423Q237 448 220.50 464.50Q204 481 180 481Q156 481 139.50 464.50Q123 448 123 423Q123 398 139.50 381.50Q156 365 180 365M180 457Q195 457 205 447.50Q215 438 215 423Q215 409 205 399Q195 389 180 389Q165 389 155.50 399Q146 409 146 423Q146 438 155.50 447.50Q165 457 180 457M148 313L148 355L126 355L126 290L234 290L234 313L193 313L193 351L171 351L171 313L148 313M213 242L213 200L126 200L126 176L234 176L234 242L213 242M214 129L234 137L234 163L126 119L126 96L234 54L234 79L214 86L214 129M193 94L154 108L193 122L193 94M126 16L126 40L234 40L234 16L126 16M234-26L234 0L193-24Q183-4 162-4Q146-4 136-14.50Q126-25 126-42L126-86L234-86L234-63L197-63L197-47L234-26M147-44Q147-37 151-32.50Q155-28 161-28Q168-28 172-32.50Q176-37 176-44L176-63L147-63L147-44M126-102L148-102L148-132L234-132L234-156L148-156L148-186L126-186L126-102Z"  horiz-adv-x="357" vert-adv-y="1000"  />

      
      <glyph glyph-name="unic6" unicode="&#xc6;" d="M148 691L126 691L126 607L148 607L148 637L234 637L234 661L148 661L148 691M126 591L126 568L192 568L126 521L126 499L234 499L234 522L166 522L234 572L234 591L126 591M180 365Q204 365 220.50 381.50Q237 398 237 423Q237 448 220.50 464.50Q204 481 180 481Q156 481 139.50 464.50Q123 448 123 423Q123 398 139.50 381.50Q156 365 180 365M180 457Q195 457 205 447.50Q215 438 215 423Q215 409 205 399Q195 389 180 389Q165 389 155.50 399Q146 409 146 423Q146 438 155.50 447.50Q165 457 180 457M148 313L148 355L126 355L126 290L234 290L234 313L193 313L193 351L171 351L171 313L148 313M213 242L213 200L126 200L126 176L234 176L234 242L213 242M214 129L234 137L234 163L126 119L126 96L234 54L234 79L214 86L214 129M193 94L154 108L193 122L193 94M126 16L126 40L234 40L234 16L126 16M234-26L234 0L193-24Q183-4 162-4Q146-4 136-14.50Q126-25 126-42L126-86L234-86L234-63L197-63L197-47L234-26M147-44Q147-37 151-32.50Q155-28 161-28Q168-28 172-32.50Q176-37 176-44L176-63L147-63L147-44M126-102L148-102L148-132L234-132L234-156L148-156L148-186L126-186L126-102Z"  horiz-adv-x="357" vert-adv-y="1000"  />

      
      <glyph glyph-name="uni42" unicode="&#x42;" d="M544 536Q544 480 517 440Q490 400 442 383Q505 366 539.50 318.50Q574 271 574 202Q574 106 509.50 53Q445 0 327 0L102 0Q94 0 94 8L94 707Q94 715 102 715L328 715Q438 715 491 666Q544 617 544 536M489 536Q489 594 450 629.50Q411 665 328 665L149 665L149 406L341 406Q410 406 449.50 440Q489 474 489 536M328 50Q421 50 469.50 89Q518 128 518 202Q518 274 474 315Q430 356 341 356L149 356L149 50L328 50Z"  horiz-adv-x="627" vert-adv-y="1000"  />

      
      <glyph glyph-name="uni43" unicode="&#x43;" d="M546 69Q499 29 440.50 9Q382-11 321-11Q245-11 188.50 18.50Q132 48 101 102.50Q70 157 70 231L70 484Q70 558 101 612.50Q132 667 188 696.50Q244 726 318 726Q375 726 430 707.50Q485 689 530 653Q537 649 532 642L512 613Q507 606 500 612Q460 642 413 658Q366 674 317 674Q225 674 175 622Q125 570 125 484L125 231Q125 145 175.50 93Q226 41 319 41Q373 41 423.50 59Q474 77 516 112Q523 118 528 110L548 81Q553 75 546 69Z"  horiz-adv-x="579" vert-adv-y="1000"  />

      
      <glyph glyph-name="uni0106" unicode="&#x0106;" d="M148 691L126 691L126 607L148 607L148 637L234 637L234 661L148 661L148 691M126 591L126 568L192 568L126 521L126 499L234 499L234 522L166 522L234 572L234 591L126 591M180 365Q204 365 220.50 381.50Q237 398 237 423Q237 448 220.50 464.50Q204 481 180 481Q156 481 139.50 464.50Q123 448 123 423Q123 398 139.50 381.50Q156 365 180 365M180 457Q195 457 205 447.50Q215 438 215 423Q215 409 205 399Q195 389 180 389Q165 389 155.50 399Q146 409 146 423Q146 438 155.50 447.50Q165 457 180 457M148 313L148 355L126 355L126 290L234 290L234 313L193 313L193 351L171 351L171 313L148 313M213 242L213 200L126 200L126 176L234 176L234 242L213 242M214 129L234 137L234 163L126 119L126 96L234 54L234 79L214 86L214 129M193 94L154 108L193 122L193 94M126 16L126 40L234 40L234 16L126 16M234-26L234 0L193-24Q183-4 162-4Q146-4 136-14.50Q126-25 126-42L126-86L234-86L234-63L197-63L197-47L234-26M147-44Q147-37 151-32.50Q155-28 161-28Q168-28 172-32.50Q176-37 176-44L176-63L147-63L147-44M126-102L148-102L148-132L234-132L234-156L148-156L148-186L126-186L126-102Z"  horiz-adv-x="357" vert-adv-y="1000"  />

      
      <glyph glyph-name="uni010C" unicode="&#x010C;" d="M148 691L126 691L126 607L148 607L148 637L234 637L234 661L148 661L148 691M126 591L126 568L192 568L126 521L126 499L234 499L234 522L166 522L234 572L234 591L126 591M180 365Q204 365 220.50 381.50Q237 398 237 423Q237 448 220.50 464.50Q204 481 180 481Q156 481 139.50 464.50Q123 448 123 423Q123 398 139.50 381.50Q156 365 180 365M180 457Q195 457 205 447.50Q215 438 215 423Q215 409 205 399Q195 389 180 389Q165 389 155.50 399Q146 409 146 423Q146 438 155.50 447.50Q165 457 180 457M148 313L148 355L126 355L126 290L234 290L234 313L193 313L193 351L171 351L171 313L148 313M213 242L213 200L126 200L126 176L234 176L234 242L213 242M214 129L234 137L234 163L126 119L126 96L234 54L234 79L214 86L214 129M193 94L154 108L193 122L193 94M126 16L126 40L234 40L234 16L126 16M234-26L234 0L193-24Q183-4 162-4Q146-4 136-14.50Q126-25 126-42L126-86L234-86L234-63L197-63L197-47L234-26M147-44Q147-37 151-32.50Q155-28 161-28Q168-28 172-32.50Q176-37 176-44L176-63L147-63L147-44M126-102L148-102L148-132L234-132L234-156L148-156L148-186L126-186L126-102Z"  horiz-adv-x="357" vert-adv-y="1000"  />

      
      <glyph glyph-name="unic7" unicode="&#xc7;" d="M148 691L126 691L126 607L148 607L148 637L234 637L234 661L148 661L148 691M126 591L126 568L192 568L126 521L126 499L234 499L234 522L166 522L234 572L234 591L126 591M180 365Q204 365 220.50 381.50Q237 398 237 423Q237 448 220.50 464.50Q204 481 180 481Q156 481 139.50 464.50Q123 448 123 423Q123 398 139.50 381.50Q156 365 180 365M180 457Q195 457 205 447.50Q215 438 215 423Q215 409 205 399Q195 389 180 389Q165 389 155.50 399Q146 409 146 423Q146 438 155.50 447.50Q165 457 180 457M148 313L148 355L126 355L126 290L234 290L234 313L193 313L193 351L171 351L171 313L148 313M213 242L213 200L126 200L126 176L234 176L234 242L213 242M214 129L234 137L234 163L126 119L126 96L234 54L234 79L214 86L214 129M193 94L154 108L193 122L193 94M126 16L126 40L234 40L234 16L126 16M234-26L234 0L193-24Q183-4 162-4Q146-4 136-14.50Q126-25 126-42L126-86L234-86L234-63L197-63L197-47L234-26M147-44Q147-37 151-32.50Q155-28 161-28Q168-28 172-32.50Q176-37 176-44L176-63L147-63L147-44M126-102L148-102L148-132L234-132L234-156L148-156L148-186L126-186L126-102Z"  horiz-adv-x="357" vert-adv-y="1000"  />

      
      <glyph glyph-name="uni010A" unicode="&#x010A;" d="M148 691L126 691L126 607L148 607L148 637L234 637L234 661L148 661L148 691M126 591L126 568L192 568L126 521L126 499L234 499L234 522L166 522L234 572L234 591L126 591M180 365Q204 365 220.50 381.50Q237 398 237 423Q237 448 220.50 464.50Q204 481 180 481Q156 481 139.50 464.50Q123 448 123 423Q123 398 139.50 381.50Q156 365 180 365M180 457Q195 457 205 447.50Q215 438 215 423Q215 409 205 399Q195 389 180 389Q165 389 155.50 399Q146 409 146 423Q146 438 155.50 447.50Q165 457 180 457M148 313L148 355L126 355L126 290L234 290L234 313L193 313L193 351L171 351L171 313L148 313M213 242L213 200L126 200L126 176L234 176L234 242L213 242M214 129L234 137L234 163L126 119L126 96L234 54L234 79L214 86L214 129M193 94L154 108L193 122L193 94M126 16L126 40L234 40L234 16L126 16M234-26L234 0L193-24Q183-4 162-4Q146-4 136-14.50Q126-25 126-42L126-86L234-86L234-63L197-63L197-47L234-26M147-44Q147-37 151-32.50Q155-28 161-28Q168-28 172-32.50Q176-37 176-44L176-63L147-63L147-44M126-102L148-102L148-132L234-132L234-156L148-156L148-186L126-186L126-102Z"  horiz-adv-x="357" vert-adv-y="1000"  />

      
      <glyph glyph-name="uni44" unicode="&#x44;" d="M102 0Q94 0 94 8L94 707Q94 715 102 715L342 715Q459 715 526.50 648Q594 581 594 463L594 249Q594 131 526.50 65.50Q459 0 342 0L102 0M342 52Q435 52 486 103Q537 154 537 249L537 463Q537 559 486 611.50Q435 664 342 664L149 664L149 52L342 52Z"  horiz-adv-x="663" vert-adv-y="1000"  />

      
      <glyph glyph-name="unid0" unicode="&#xd0;" d="M148 691L126 691L126 607L148 607L148 637L234 637L234 661L148 661L148 691M126 591L126 568L192 568L126 521L126 499L234 499L234 522L166 522L234 572L234 591L126 591M180 365Q204 365 220.50 381.50Q237 398 237 423Q237 448 220.50 464.50Q204 481 180 481Q156 481 139.50 464.50Q123 448 123 423Q123 398 139.50 381.50Q156 365 180 365M180 457Q195 457 205 447.50Q215 438 215 423Q215 409 205 399Q195 389 180 389Q165 389 155.50 399Q146 409 146 423Q146 438 155.50 447.50Q165 457 180 457M148 313L148 355L126 355L126 290L234 290L234 313L193 313L193 351L171 351L171 313L148 313M213 242L213 200L126 200L126 176L234 176L234 242L213 242M214 129L234 137L234 163L126 119L126 96L234 54L234 79L214 86L214 129M193 94L154 108L193 122L193 94M126 16L126 40L234 40L234 16L126 16M234-26L234 0L193-24Q183-4 162-4Q146-4 136-14.50Q126-25 126-42L126-86L234-86L234-63L197-63L197-47L234-26M147-44Q147-37 151-32.50Q155-28 161-28Q168-28 172-32.50Q176-37 176-44L176-63L147-63L147-44M126-102L148-102L148-132L234-132L234-156L148-156L148-186L126-186L126-102Z"  horiz-adv-x="357" vert-adv-y="1000"  />

      
      <glyph glyph-name="uni010E" unicode="&#x010E;" d="M148 691L126 691L126 607L148 607L148 637L234 637L234 661L148 661L148 691M126 591L126 568L192 568L126 521L126 499L234 499L234 522L166 522L234 572L234 591L126 591M180 365Q204 365 220.50 381.50Q237 398 237 423Q237 448 220.50 464.50Q204 481 180 481Q156 481 139.50 464.50Q123 448 123 423Q123 398 139.50 381.50Q156 365 180 365M180 457Q195 457 205 447.50Q215 438 215 423Q215 409 205 399Q195 389 180 389Q165 389 155.50 399Q146 409 146 423Q146 438 155.50 447.50Q165 457 180 457M148 313L148 355L126 355L126 290L234 290L234 313L193 313L193 351L171 351L171 313L148 313M213 242L213 200L126 200L126 176L234 176L234 242L213 242M214 129L234 137L234 163L126 119L126 96L234 54L234 79L214 86L214 129M193 94L154 108L193 122L193 94M126 16L126 40L234 40L234 16L126 16M234-26L234 0L193-24Q183-4 162-4Q146-4 136-14.50Q126-25 126-42L126-86L234-86L234-63L197-63L197-47L234-26M147-44Q147-37 151-32.50Q155-28 161-28Q168-28 172-32.50Q176-37 176-44L176-63L147-63L147-44M126-102L148-102L148-132L234-132L234-156L148-156L148-186L126-186L126-102Z"  horiz-adv-x="357" vert-adv-y="1000"  />

      
      <glyph glyph-name="uni0110" unicode="&#x0110;" d="M148 691L126 691L126 607L148 607L148 637L234 637L234 661L148 661L148 691M126 591L126 568L192 568L126 521L126 499L234 499L234 522L166 522L234 572L234 591L126 591M180 365Q204 365 220.50 381.50Q237 398 237 423Q237 448 220.50 464.50Q204 481 180 481Q156 481 139.50 464.50Q123 448 123 423Q123 398 139.50 381.50Q156 365 180 365M180 457Q195 457 205 447.50Q215 438 215 423Q215 409 205 399Q195 389 180 389Q165 389 155.50 399Q146 409 146 423Q146 438 155.50 447.50Q165 457 180 457M148 313L148 355L126 355L126 290L234 290L234 313L193 313L193 351L171 351L171 313L148 313M213 242L213 200L126 200L126 176L234 176L234 242L213 242M214 129L234 137L234 163L126 119L126 96L234 54L234 79L214 86L214 129M193 94L154 108L193 122L193 94M126 16L126 40L234 40L234 16L126 16M234-26L234 0L193-24Q183-4 162-4Q146-4 136-14.50Q126-25 126-42L126-86L234-86L234-63L197-63L197-47L234-26M147-44Q147-37 151-32.50Q155-28 161-28Q168-28 172-32.50Q176-37 176-44L176-63L147-63L147-44M126-102L148-102L148-132L234-132L234-156L148-156L148-186L126-186L126-102Z"  horiz-adv-x="357" vert-adv-y="1000"  />

      
      <glyph glyph-name="uni45" unicode="&#x45;" d="M513 51Q521 51 521 43L521 8Q521 0 513 0L102 0Q94 0 94 8L94 707Q94 715 102 715L498 715Q507 715 507 707L507 672Q507 664 498 664L149 664L149 390L477 390Q485 390 485 381L485 347Q485 339 477 339L149 339L149 51L513 51Z"  horiz-adv-x="570" vert-adv-y="1000"  />

      
      <glyph glyph-name="unic9" unicode="&#xc9;" d="M148 691L126 691L126 607L148 607L148 637L234 637L234 661L148 661L148 691M126 591L126 568L192 568L126 521L126 499L234 499L234 522L166 522L234 572L234 591L126 591M180 365Q204 365 220.50 381.50Q237 398 237 423Q237 448 220.50 464.50Q204 481 180 481Q156 481 139.50 464.50Q123 448 123 423Q123 398 139.50 381.50Q156 365 180 365M180 457Q195 457 205 447.50Q215 438 215 423Q215 409 205 399Q195 389 180 389Q165 389 155.50 399Q146 409 146 423Q146 438 155.50 447.50Q165 457 180 457M148 313L148 355L126 355L126 290L234 290L234 313L193 313L193 351L171 351L171 313L148 313M213 242L213 200L126 200L126 176L234 176L234 242L213 242M214 129L234 137L234 163L126 119L126 96L234 54L234 79L214 86L214 129M193 94L154 108L193 122L193 94M126 16L126 40L234 40L234 16L126 16M234-26L234 0L193-24Q183-4 162-4Q146-4 136-14.50Q126-25 126-42L126-86L234-86L234-63L197-63L197-47L234-26M147-44Q147-37 151-32.50Q155-28 161-28Q168-28 172-32.50Q176-37 176-44L176-63L147-63L147-44M126-102L148-102L148-132L234-132L234-156L148-156L148-186L126-186L126-102Z"  horiz-adv-x="357" vert-adv-y="1000"  />

      
      <glyph glyph-name="uni011A" unicode="&#x011A;" d="M148 691L126 691L126 607L148 607L148 637L234 637L234 661L148 661L148 691M126 591L126 568L192 568L126 521L126 499L234 499L234 522L166 522L234 572L234 591L126 591M180 365Q204 365 220.50 381.50Q237 398 237 423Q237 448 220.50 464.50Q204 481 180 481Q156 481 139.50 464.50Q123 448 123 423Q123 398 139.50 381.50Q156 365 180 365M180 457Q195 457 205 447.50Q215 438 215 423Q215 409 205 399Q195 389 180 389Q165 389 155.50 399Q146 409 146 423Q146 438 155.50 447.50Q165 457 180 457M148 313L148 355L126 355L126 290L234 290L234 313L193 313L193 351L171 351L171 313L148 313M213 242L213 200L126 200L126 176L234 176L234 242L213 242M214 129L234 137L234 163L126 119L126 96L234 54L234 79L214 86L214 129M193 94L154 108L193 122L193 94M126 16L126 40L234 40L234 16L126 16M234-26L234 0L193-24Q183-4 162-4Q146-4 136-14.50Q126-25 126-42L126-86L234-86L234-63L197-63L197-47L234-26M147-44Q147-37 151-32.50Q155-28 161-28Q168-28 172-32.50Q176-37 176-44L176-63L147-63L147-44M126-102L148-102L148-132L234-132L234-156L148-156L148-186L126-186L126-102Z"  horiz-adv-x="357" vert-adv-y="1000"  />

      
      <glyph glyph-name="unica" unicode="&#xca;" d="M148 691L126 691L126 607L148 607L148 637L234 637L234 661L148 661L148 691M126 591L126 568L192 568L126 521L126 499L234 499L234 522L166 522L234 572L234 591L126 591M180 365Q204 365 220.50 381.50Q237 398 237 423Q237 448 220.50 464.50Q204 481 180 481Q156 481 139.50 464.50Q123 448 123 423Q123 398 139.50 381.50Q156 365 180 365M180 457Q195 457 205 447.50Q215 438 215 423Q215 409 205 399Q195 389 180 389Q165 389 155.50 399Q146 409 146 423Q146 438 155.50 447.50Q165 457 180 457M148 313L148 355L126 355L126 290L234 290L234 313L193 313L193 351L171 351L171 313L148 313M213 242L213 200L126 200L126 176L234 176L234 242L213 242M214 129L234 137L234 163L126 119L126 96L234 54L234 79L214 86L214 129M193 94L154 108L193 122L193 94M126 16L126 40L234 40L234 16L126 16M234-26L234 0L193-24Q183-4 162-4Q146-4 136-14.50Q126-25 126-42L126-86L234-86L234-63L197-63L197-47L234-26M147-44Q147-37 151-32.50Q155-28 161-28Q168-28 172-32.50Q176-37 176-44L176-63L147-63L147-44M126-102L148-102L148-132L234-132L234-156L148-156L148-186L126-186L126-102Z"  horiz-adv-x="357" vert-adv-y="1000"  />

      
      <glyph glyph-name="unicb" unicode="&#xcb;" d="M148 691L126 691L126 607L148 607L148 637L234 637L234 661L148 661L148 691M126 591L126 568L192 568L126 521L126 499L234 499L234 522L166 522L234 572L234 591L126 591M180 365Q204 365 220.50 381.50Q237 398 237 423Q237 448 220.50 464.50Q204 481 180 481Q156 481 139.50 464.50Q123 448 123 423Q123 398 139.50 381.50Q156 365 180 365M180 457Q195 457 205 447.50Q215 438 215 423Q215 409 205 399Q195 389 180 389Q165 389 155.50 399Q146 409 146 423Q146 438 155.50 447.50Q165 457 180 457M148 313L148 355L126 355L126 290L234 290L234 313L193 313L193 351L171 351L171 313L148 313M213 242L213 200L126 200L126 176L234 176L234 242L213 242M214 129L234 137L234 163L126 119L126 96L234 54L234 79L214 86L214 129M193 94L154 108L193 122L193 94M126 16L126 40L234 40L234 16L126 16M234-26L234 0L193-24Q183-4 162-4Q146-4 136-14.50Q126-25 126-42L126-86L234-86L234-63L197-63L197-47L234-26M147-44Q147-37 151-32.50Q155-28 161-28Q168-28 172-32.50Q176-37 176-44L176-63L147-63L147-44M126-102L148-102L148-132L234-132L234-156L148-156L148-186L126-186L126-102Z"  horiz-adv-x="357" vert-adv-y="1000"  />

      
      <glyph glyph-name="uni0116" unicode="&#x0116;" d="M148 691L126 691L126 607L148 607L148 637L234 637L234 661L148 661L148 691M126 591L126 568L192 568L126 521L126 499L234 499L234 522L166 522L234 572L234 591L126 591M180 365Q204 365 220.50 381.50Q237 398 237 423Q237 448 220.50 464.50Q204 481 180 481Q156 481 139.50 464.50Q123 448 123 423Q123 398 139.50 381.50Q156 365 180 365M180 457Q195 457 205 447.50Q215 438 215 423Q215 409 205 399Q195 389 180 389Q165 389 155.50 399Q146 409 146 423Q146 438 155.50 447.50Q165 457 180 457M148 313L148 355L126 355L126 290L234 290L234 313L193 313L193 351L171 351L171 313L148 313M213 242L213 200L126 200L126 176L234 176L234 242L213 242M214 129L234 137L234 163L126 119L126 96L234 54L234 79L214 86L214 129M193 94L154 108L193 122L193 94M126 16L126 40L234 40L234 16L126 16M234-26L234 0L193-24Q183-4 162-4Q146-4 136-14.50Q126-25 126-42L126-86L234-86L234-63L197-63L197-47L234-26M147-44Q147-37 151-32.50Q155-28 161-28Q168-28 172-32.50Q176-37 176-44L176-63L147-63L147-44M126-102L148-102L148-132L234-132L234-156L148-156L148-186L126-186L126-102Z"  horiz-adv-x="357" vert-adv-y="1000"  />

      
      <glyph glyph-name="unic8" unicode="&#xc8;" d="M148 691L126 691L126 607L148 607L148 637L234 637L234 661L148 661L148 691M126 591L126 568L192 568L126 521L126 499L234 499L234 522L166 522L234 572L234 591L126 591M180 365Q204 365 220.50 381.50Q237 398 237 423Q237 448 220.50 464.50Q204 481 180 481Q156 481 139.50 464.50Q123 448 123 423Q123 398 139.50 381.50Q156 365 180 365M180 457Q195 457 205 447.50Q215 438 215 423Q215 409 205 399Q195 389 180 389Q165 389 155.50 399Q146 409 146 423Q146 438 155.50 447.50Q165 457 180 457M148 313L148 355L126 355L126 290L234 290L234 313L193 313L193 351L171 351L171 313L148 313M213 242L213 200L126 200L126 176L234 176L234 242L213 242M214 129L234 137L234 163L126 119L126 96L234 54L234 79L214 86L214 129M193 94L154 108L193 122L193 94M126 16L126 40L234 40L234 16L126 16M234-26L234 0L193-24Q183-4 162-4Q146-4 136-14.50Q126-25 126-42L126-86L234-86L234-63L197-63L197-47L234-26M147-44Q147-37 151-32.50Q155-28 161-28Q168-28 172-32.50Q176-37 176-44L176-63L147-63L147-44M126-102L148-102L148-132L234-132L234-156L148-156L148-186L126-186L126-102Z"  horiz-adv-x="357" vert-adv-y="1000"  />

      
      <glyph glyph-name="uni0112" unicode="&#x0112;" d="M148 691L126 691L126 607L148 607L148 637L234 637L234 661L148 661L148 691M126 591L126 568L192 568L126 521L126 499L234 499L234 522L166 522L234 572L234 591L126 591M180 365Q204 365 220.50 381.50Q237 398 237 423Q237 448 220.50 464.50Q204 481 180 481Q156 481 139.50 464.50Q123 448 123 423Q123 398 139.50 381.50Q156 365 180 365M180 457Q195 457 205 447.50Q215 438 215 423Q215 409 205 399Q195 389 180 389Q165 389 155.50 399Q146 409 146 423Q146 438 155.50 447.50Q165 457 180 457M148 313L148 355L126 355L126 290L234 290L234 313L193 313L193 351L171 351L171 313L148 313M213 242L213 200L126 200L126 176L234 176L234 242L213 242M214 129L234 137L234 163L126 119L126 96L234 54L234 79L214 86L214 129M193 94L154 108L193 122L193 94M126 16L126 40L234 40L234 16L126 16M234-26L234 0L193-24Q183-4 162-4Q146-4 136-14.50Q126-25 126-42L126-86L234-86L234-63L197-63L197-47L234-26M147-44Q147-37 151-32.50Q155-28 161-28Q168-28 172-32.50Q176-37 176-44L176-63L147-63L147-44M126-102L148-102L148-132L234-132L234-156L148-156L148-186L126-186L126-102Z"  horiz-adv-x="357" vert-adv-y="1000"  />

      
      <glyph glyph-name="uni0118" unicode="&#x0118;" d="M148 691L126 691L126 607L148 607L148 637L234 637L234 661L148 661L148 691M126 591L126 568L192 568L126 521L126 499L234 499L234 522L166 522L234 572L234 591L126 591M180 365Q204 365 220.50 381.50Q237 398 237 423Q237 448 220.50 464.50Q204 481 180 481Q156 481 139.50 464.50Q123 448 123 423Q123 398 139.50 381.50Q156 365 180 365M180 457Q195 457 205 447.50Q215 438 215 423Q215 409 205 399Q195 389 180 389Q165 389 155.50 399Q146 409 146 423Q146 438 155.50 447.50Q165 457 180 457M148 313L148 355L126 355L126 290L234 290L234 313L193 313L193 351L171 351L171 313L148 313M213 242L213 200L126 200L126 176L234 176L234 242L213 242M214 129L234 137L234 163L126 119L126 96L234 54L234 79L214 86L214 129M193 94L154 108L193 122L193 94M126 16L126 40L234 40L234 16L126 16M234-26L234 0L193-24Q183-4 162-4Q146-4 136-14.50Q126-25 126-42L126-86L234-86L234-63L197-63L197-47L234-26M147-44Q147-37 151-32.50Q155-28 161-28Q168-28 172-32.50Q176-37 176-44L176-63L147-63L147-44M126-102L148-102L148-132L234-132L234-156L148-156L148-186L126-186L126-102Z"  horiz-adv-x="357" vert-adv-y="1000"  />

      
      <glyph glyph-name="uni46" unicode="&#x46;" d="M518 672Q518 664 509 664L149 664L149 376L477 376Q485 376 485 367L485 333Q485 325 477 325L149 325L149 8Q149 0 141 0L102 0Q94 0 94 8L94 707Q94 715 102 715L509 715Q518 715 518 707L518 672Z"  horiz-adv-x="551" vert-adv-y="1000"  />

      
      <glyph glyph-name="uni47" unicode="&#x47;" d="M571 88Q524 41 461 15.50Q398-10 326-10Q249-10 191 19.50Q133 49 101 103.50Q69 158 69 232L69 484Q69 558 100.50 613Q132 668 189 697Q246 726 321 726Q383 726 444 706.50Q505 687 554 650Q562 645 556 638L535 610Q530 603 524 608Q481 640 428.50 657Q376 674 321 674Q227 674 175.50 623Q124 572 124 483L124 232Q124 144 177.50 93Q231 42 326 42Q381 42 431.50 60Q482 78 520 112L520 327L330 327Q321 327 321 335L321 370Q321 378 330 378L566 378Q575 378 575 370L575 98Q575 91 571 88Z"  horiz-adv-x="639" vert-adv-y="1000"  />

      
      <glyph glyph-name="uni011E" unicode="&#x011E;" d="M148 691L126 691L126 607L148 607L148 637L234 637L234 661L148 661L148 691M126 591L126 568L192 568L126 521L126 499L234 499L234 522L166 522L234 572L234 591L126 591M180 365Q204 365 220.50 381.50Q237 398 237 423Q237 448 220.50 464.50Q204 481 180 481Q156 481 139.50 464.50Q123 448 123 423Q123 398 139.50 381.50Q156 365 180 365M180 457Q195 457 205 447.50Q215 438 215 423Q215 409 205 399Q195 389 180 389Q165 389 155.50 399Q146 409 146 423Q146 438 155.50 447.50Q165 457 180 457M148 313L148 355L126 355L126 290L234 290L234 313L193 313L193 351L171 351L171 313L148 313M213 242L213 200L126 200L126 176L234 176L234 242L213 242M214 129L234 137L234 163L126 119L126 96L234 54L234 79L214 86L214 129M193 94L154 108L193 122L193 94M126 16L126 40L234 40L234 16L126 16M234-26L234 0L193-24Q183-4 162-4Q146-4 136-14.50Q126-25 126-42L126-86L234-86L234-63L197-63L197-47L234-26M147-44Q147-37 151-32.50Q155-28 161-28Q168-28 172-32.50Q176-37 176-44L176-63L147-63L147-44M126-102L148-102L148-132L234-132L234-156L148-156L148-186L126-186L126-102Z"  horiz-adv-x="357" vert-adv-y="1000"  />

      
      <glyph glyph-name="uni0122" unicode="&#x0122;" d="M148 691L126 691L126 607L148 607L148 637L234 637L234 661L148 661L148 691M126 591L126 568L192 568L126 521L126 499L234 499L234 522L166 522L234 572L234 591L126 591M180 365Q204 365 220.50 381.50Q237 398 237 423Q237 448 220.50 464.50Q204 481 180 481Q156 481 139.50 464.50Q123 448 123 423Q123 398 139.50 381.50Q156 365 180 365M180 457Q195 457 205 447.50Q215 438 215 423Q215 409 205 399Q195 389 180 389Q165 389 155.50 399Q146 409 146 423Q146 438 155.50 447.50Q165 457 180 457M148 313L148 355L126 355L126 290L234 290L234 313L193 313L193 351L171 351L171 313L148 313M213 242L213 200L126 200L126 176L234 176L234 242L213 242M214 129L234 137L234 163L126 119L126 96L234 54L234 79L214 86L214 129M193 94L154 108L193 122L193 94M126 16L126 40L234 40L234 16L126 16M234-26L234 0L193-24Q183-4 162-4Q146-4 136-14.50Q126-25 126-42L126-86L234-86L234-63L197-63L197-47L234-26M147-44Q147-37 151-32.50Q155-28 161-28Q168-28 172-32.50Q176-37 176-44L176-63L147-63L147-44M126-102L148-102L148-132L234-132L234-156L148-156L148-186L126-186L126-102Z"  horiz-adv-x="357" vert-adv-y="1000"  />

      
      <glyph glyph-name="uni0120" unicode="&#x0120;" d="M148 691L126 691L126 607L148 607L148 637L234 637L234 661L148 661L148 691M126 591L126 568L192 568L126 521L126 499L234 499L234 522L166 522L234 572L234 591L126 591M180 365Q204 365 220.50 381.50Q237 398 237 423Q237 448 220.50 464.50Q204 481 180 481Q156 481 139.50 464.50Q123 448 123 423Q123 398 139.50 381.50Q156 365 180 365M180 457Q195 457 205 447.50Q215 438 215 423Q215 409 205 399Q195 389 180 389Q165 389 155.50 399Q146 409 146 423Q146 438 155.50 447.50Q165 457 180 457M148 313L148 355L126 355L126 290L234 290L234 313L193 313L193 351L171 351L171 313L148 313M213 242L213 200L126 200L126 176L234 176L234 242L213 242M214 129L234 137L234 163L126 119L126 96L234 54L234 79L214 86L214 129M193 94L154 108L193 122L193 94M126 16L126 40L234 40L234 16L126 16M234-26L234 0L193-24Q183-4 162-4Q146-4 136-14.50Q126-25 126-42L126-86L234-86L234-63L197-63L197-47L234-26M147-44Q147-37 151-32.50Q155-28 161-28Q168-28 172-32.50Q176-37 176-44L176-63L147-63L147-44M126-102L148-102L148-132L234-132L234-156L148-156L148-186L126-186L126-102Z"  horiz-adv-x="357" vert-adv-y="1000"  />

      
      <glyph glyph-name="uni48" unicode="&#x48;" d="M528 707Q528 715 536 715L574 715Q583 715 583 707L583 8Q583 0 574 0L536 0Q528 0 528 8L528 338L149 338L149 8Q149 0 141 0L102 0Q94 0 94 8L94 707Q94 715 102 715L141 715Q149 715 149 707L149 389L528 389L528 707Z"  horiz-adv-x="677" vert-adv-y="1000"  />

      
      <glyph glyph-name="uni0126" unicode="&#x0126;" d="M148 691L126 691L126 607L148 607L148 637L234 637L234 661L148 661L148 691M126 591L126 568L192 568L126 521L126 499L234 499L234 522L166 522L234 572L234 591L126 591M180 365Q204 365 220.50 381.50Q237 398 237 423Q237 448 220.50 464.50Q204 481 180 481Q156 481 139.50 464.50Q123 448 123 423Q123 398 139.50 381.50Q156 365 180 365M180 457Q195 457 205 447.50Q215 438 215 423Q215 409 205 399Q195 389 180 389Q165 389 155.50 399Q146 409 146 423Q146 438 155.50 447.50Q165 457 180 457M148 313L148 355L126 355L126 290L234 290L234 313L193 313L193 351L171 351L171 313L148 313M213 242L213 200L126 200L126 176L234 176L234 242L213 242M214 129L234 137L234 163L126 119L126 96L234 54L234 79L214 86L214 129M193 94L154 108L193 122L193 94M126 16L126 40L234 40L234 16L126 16M234-26L234 0L193-24Q183-4 162-4Q146-4 136-14.50Q126-25 126-42L126-86L234-86L234-63L197-63L197-47L234-26M147-44Q147-37 151-32.50Q155-28 161-28Q168-28 172-32.50Q176-37 176-44L176-63L147-63L147-44M126-102L148-102L148-132L234-132L234-156L148-156L148-186L126-186L126-102Z"  horiz-adv-x="357" vert-adv-y="1000"  />

      
      <glyph glyph-name="uni49" unicode="&#x49;" d="M149 8Q149 0 141 0L102 0Q94 0 94 8L94 707Q94 715 102 715L141 715Q149 715 149 707L149 8Z"  horiz-adv-x="243" vert-adv-y="1000"  />

      
      <glyph glyph-name="uni0132" unicode="&#x0132;" d="M148 691L126 691L126 607L148 607L148 637L234 637L234 661L148 661L148 691M126 591L126 568L192 568L126 521L126 499L234 499L234 522L166 522L234 572L234 591L126 591M180 365Q204 365 220.50 381.50Q237 398 237 423Q237 448 220.50 464.50Q204 481 180 481Q156 481 139.50 464.50Q123 448 123 423Q123 398 139.50 381.50Q156 365 180 365M180 457Q195 457 205 447.50Q215 438 215 423Q215 409 205 399Q195 389 180 389Q165 389 155.50 399Q146 409 146 423Q146 438 155.50 447.50Q165 457 180 457M148 313L148 355L126 355L126 290L234 290L234 313L193 313L193 351L171 351L171 313L148 313M213 242L213 200L126 200L126 176L234 176L234 242L213 242M214 129L234 137L234 163L126 119L126 96L234 54L234 79L214 86L214 129M193 94L154 108L193 122L193 94M126 16L126 40L234 40L234 16L126 16M234-26L234 0L193-24Q183-4 162-4Q146-4 136-14.50Q126-25 126-42L126-86L234-86L234-63L197-63L197-47L234-26M147-44Q147-37 151-32.50Q155-28 161-28Q168-28 172-32.50Q176-37 176-44L176-63L147-63L147-44M126-102L148-102L148-132L234-132L234-156L148-156L148-186L126-186L126-102Z"  horiz-adv-x="357" vert-adv-y="1000"  />

      
      <glyph glyph-name="unicd" unicode="&#xcd;" d="M148 691L126 691L126 607L148 607L148 637L234 637L234 661L148 661L148 691M126 591L126 568L192 568L126 521L126 499L234 499L234 522L166 522L234 572L234 591L126 591M180 365Q204 365 220.50 381.50Q237 398 237 423Q237 448 220.50 464.50Q204 481 180 481Q156 481 139.50 464.50Q123 448 123 423Q123 398 139.50 381.50Q156 365 180 365M180 457Q195 457 205 447.50Q215 438 215 423Q215 409 205 399Q195 389 180 389Q165 389 155.50 399Q146 409 146 423Q146 438 155.50 447.50Q165 457 180 457M148 313L148 355L126 355L126 290L234 290L234 313L193 313L193 351L171 351L171 313L148 313M213 242L213 200L126 200L126 176L234 176L234 242L213 242M214 129L234 137L234 163L126 119L126 96L234 54L234 79L214 86L214 129M193 94L154 108L193 122L193 94M126 16L126 40L234 40L234 16L126 16M234-26L234 0L193-24Q183-4 162-4Q146-4 136-14.50Q126-25 126-42L126-86L234-86L234-63L197-63L197-47L234-26M147-44Q147-37 151-32.50Q155-28 161-28Q168-28 172-32.50Q176-37 176-44L176-63L147-63L147-44M126-102L148-102L148-132L234-132L234-156L148-156L148-186L126-186L126-102Z"  horiz-adv-x="357" vert-adv-y="1000"  />

      
      <glyph glyph-name="unice" unicode="&#xce;" d="M148 691L126 691L126 607L148 607L148 637L234 637L234 661L148 661L148 691M126 591L126 568L192 568L126 521L126 499L234 499L234 522L166 522L234 572L234 591L126 591M180 365Q204 365 220.50 381.50Q237 398 237 423Q237 448 220.50 464.50Q204 481 180 481Q156 481 139.50 464.50Q123 448 123 423Q123 398 139.50 381.50Q156 365 180 365M180 457Q195 457 205 447.50Q215 438 215 423Q215 409 205 399Q195 389 180 389Q165 389 155.50 399Q146 409 146 423Q146 438 155.50 447.50Q165 457 180 457M148 313L148 355L126 355L126 290L234 290L234 313L193 313L193 351L171 351L171 313L148 313M213 242L213 200L126 200L126 176L234 176L234 242L213 242M214 129L234 137L234 163L126 119L126 96L234 54L234 79L214 86L214 129M193 94L154 108L193 122L193 94M126 16L126 40L234 40L234 16L126 16M234-26L234 0L193-24Q183-4 162-4Q146-4 136-14.50Q126-25 126-42L126-86L234-86L234-63L197-63L197-47L234-26M147-44Q147-37 151-32.50Q155-28 161-28Q168-28 172-32.50Q176-37 176-44L176-63L147-63L147-44M126-102L148-102L148-132L234-132L234-156L148-156L148-186L126-186L126-102Z"  horiz-adv-x="357" vert-adv-y="1000"  />

      
      <glyph glyph-name="unicf" unicode="&#xcf;" d="M148 691L126 691L126 607L148 607L148 637L234 637L234 661L148 661L148 691M126 591L126 568L192 568L126 521L126 499L234 499L234 522L166 522L234 572L234 591L126 591M180 365Q204 365 220.50 381.50Q237 398 237 423Q237 448 220.50 464.50Q204 481 180 481Q156 481 139.50 464.50Q123 448 123 423Q123 398 139.50 381.50Q156 365 180 365M180 457Q195 457 205 447.50Q215 438 215 423Q215 409 205 399Q195 389 180 389Q165 389 155.50 399Q146 409 146 423Q146 438 155.50 447.50Q165 457 180 457M148 313L148 355L126 355L126 290L234 290L234 313L193 313L193 351L171 351L171 313L148 313M213 242L213 200L126 200L126 176L234 176L234 242L213 242M214 129L234 137L234 163L126 119L126 96L234 54L234 79L214 86L214 129M193 94L154 108L193 122L193 94M126 16L126 40L234 40L234 16L126 16M234-26L234 0L193-24Q183-4 162-4Q146-4 136-14.50Q126-25 126-42L126-86L234-86L234-63L197-63L197-47L234-26M147-44Q147-37 151-32.50Q155-28 161-28Q168-28 172-32.50Q176-37 176-44L176-63L147-63L147-44M126-102L148-102L148-132L234-132L234-156L148-156L148-186L126-186L126-102Z"  horiz-adv-x="357" vert-adv-y="1000"  />

      
      <glyph glyph-name="uni0130" unicode="&#x0130;" d="M148 691L126 691L126 607L148 607L148 637L234 637L234 661L148 661L148 691M126 591L126 568L192 568L126 521L126 499L234 499L234 522L166 522L234 572L234 591L126 591M180 365Q204 365 220.50 381.50Q237 398 237 423Q237 448 220.50 464.50Q204 481 180 481Q156 481 139.50 464.50Q123 448 123 423Q123 398 139.50 381.50Q156 365 180 365M180 457Q195 457 205 447.50Q215 438 215 423Q215 409 205 399Q195 389 180 389Q165 389 155.50 399Q146 409 146 423Q146 438 155.50 447.50Q165 457 180 457M148 313L148 355L126 355L126 290L234 290L234 313L193 313L193 351L171 351L171 313L148 313M213 242L213 200L126 200L126 176L234 176L234 242L213 242M214 129L234 137L234 163L126 119L126 96L234 54L234 79L214 86L214 129M193 94L154 108L193 122L193 94M126 16L126 40L234 40L234 16L126 16M234-26L234 0L193-24Q183-4 162-4Q146-4 136-14.50Q126-25 126-42L126-86L234-86L234-63L197-63L197-47L234-26M147-44Q147-37 151-32.50Q155-28 161-28Q168-28 172-32.50Q176-37 176-44L176-63L147-63L147-44M126-102L148-102L148-132L234-132L234-156L148-156L148-186L126-186L126-102Z"  horiz-adv-x="357" vert-adv-y="1000"  />

      
      <glyph glyph-name="unicc" unicode="&#xcc;" d="M148 691L126 691L126 607L148 607L148 637L234 637L234 661L148 661L148 691M126 591L126 568L192 568L126 521L126 499L234 499L234 522L166 522L234 572L234 591L126 591M180 365Q204 365 220.50 381.50Q237 398 237 423Q237 448 220.50 464.50Q204 481 180 481Q156 481 139.50 464.50Q123 448 123 423Q123 398 139.50 381.50Q156 365 180 365M180 457Q195 457 205 447.50Q215 438 215 423Q215 409 205 399Q195 389 180 389Q165 389 155.50 399Q146 409 146 423Q146 438 155.50 447.50Q165 457 180 457M148 313L148 355L126 355L126 290L234 290L234 313L193 313L193 351L171 351L171 313L148 313M213 242L213 200L126 200L126 176L234 176L234 242L213 242M214 129L234 137L234 163L126 119L126 96L234 54L234 79L214 86L214 129M193 94L154 108L193 122L193 94M126 16L126 40L234 40L234 16L126 16M234-26L234 0L193-24Q183-4 162-4Q146-4 136-14.50Q126-25 126-42L126-86L234-86L234-63L197-63L197-47L234-26M147-44Q147-37 151-32.50Q155-28 161-28Q168-28 172-32.50Q176-37 176-44L176-63L147-63L147-44M126-102L148-102L148-132L234-132L234-156L148-156L148-186L126-186L126-102Z"  horiz-adv-x="357" vert-adv-y="1000"  />

      
      <glyph glyph-name="uni012A" unicode="&#x012A;" d="M148 691L126 691L126 607L148 607L148 637L234 637L234 661L148 661L148 691M126 591L126 568L192 568L126 521L126 499L234 499L234 522L166 522L234 572L234 591L126 591M180 365Q204 365 220.50 381.50Q237 398 237 423Q237 448 220.50 464.50Q204 481 180 481Q156 481 139.50 464.50Q123 448 123 423Q123 398 139.50 381.50Q156 365 180 365M180 457Q195 457 205 447.50Q215 438 215 423Q215 409 205 399Q195 389 180 389Q165 389 155.50 399Q146 409 146 423Q146 438 155.50 447.50Q165 457 180 457M148 313L148 355L126 355L126 290L234 290L234 313L193 313L193 351L171 351L171 313L148 313M213 242L213 200L126 200L126 176L234 176L234 242L213 242M214 129L234 137L234 163L126 119L126 96L234 54L234 79L214 86L214 129M193 94L154 108L193 122L193 94M126 16L126 40L234 40L234 16L126 16M234-26L234 0L193-24Q183-4 162-4Q146-4 136-14.50Q126-25 126-42L126-86L234-86L234-63L197-63L197-47L234-26M147-44Q147-37 151-32.50Q155-28 161-28Q168-28 172-32.50Q176-37 176-44L176-63L147-63L147-44M126-102L148-102L148-132L234-132L234-156L148-156L148-186L126-186L126-102Z"  horiz-adv-x="357" vert-adv-y="1000"  />

      
      <glyph glyph-name="uni012E" unicode="&#x012E;" d="M148 691L126 691L126 607L148 607L148 637L234 637L234 661L148 661L148 691M126 591L126 568L192 568L126 521L126 499L234 499L234 522L166 522L234 572L234 591L126 591M180 365Q204 365 220.50 381.50Q237 398 237 423Q237 448 220.50 464.50Q204 481 180 481Q156 481 139.50 464.50Q123 448 123 423Q123 398 139.50 381.50Q156 365 180 365M180 457Q195 457 205 447.50Q215 438 215 423Q215 409 205 399Q195 389 180 389Q165 389 155.50 399Q146 409 146 423Q146 438 155.50 447.50Q165 457 180 457M148 313L148 355L126 355L126 290L234 290L234 313L193 313L193 351L171 351L171 313L148 313M213 242L213 200L126 200L126 176L234 176L234 242L213 242M214 129L234 137L234 163L126 119L126 96L234 54L234 79L214 86L214 129M193 94L154 108L193 122L193 94M126 16L126 40L234 40L234 16L126 16M234-26L234 0L193-24Q183-4 162-4Q146-4 136-14.50Q126-25 126-42L126-86L234-86L234-63L197-63L197-47L234-26M147-44Q147-37 151-32.50Q155-28 161-28Q168-28 172-32.50Q176-37 176-44L176-63L147-63L147-44M126-102L148-102L148-132L234-132L234-156L148-156L148-186L126-186L126-102Z"  horiz-adv-x="357" vert-adv-y="1000"  />

      
      <glyph glyph-name="uni4a" unicode="&#x4a;" d="M408 214Q408 104 356 47Q304-10 210-10Q154-10 108.50 9.50Q63 29 19 69Q13 73 17 81L35 109Q40 117 47 111Q87 77 125.50 59.50Q164 42 210 42Q282 42 317.50 83.50Q353 125 353 214L353 707Q353 715 361 715L400 715Q408 715 408 707L408 214Z"  horiz-adv-x="497" vert-adv-y="1000"  />

      
      <glyph glyph-name="uni4b" unicode="&#x4b;" d="M102 0Q94 0 94 8L94 707Q94 715 102 715L141 715Q149 715 149 707L149 340L510 710Q517 715 521 715L572 715Q577 715 579 712Q581 709 577 705L272 393L596 10Q598 8 598 5Q598 0 591 0L540 0Q533 0 530 5L235 354L149 269L149 8Q149 0 141 0L102 0Z"  horiz-adv-x="608" vert-adv-y="1000"  />

      
      <glyph glyph-name="uni0136" unicode="&#x0136;" d="M148 691L126 691L126 607L148 607L148 637L234 637L234 661L148 661L148 691M126 591L126 568L192 568L126 521L126 499L234 499L234 522L166 522L234 572L234 591L126 591M180 365Q204 365 220.50 381.50Q237 398 237 423Q237 448 220.50 464.50Q204 481 180 481Q156 481 139.50 464.50Q123 448 123 423Q123 398 139.50 381.50Q156 365 180 365M180 457Q195 457 205 447.50Q215 438 215 423Q215 409 205 399Q195 389 180 389Q165 389 155.50 399Q146 409 146 423Q146 438 155.50 447.50Q165 457 180 457M148 313L148 355L126 355L126 290L234 290L234 313L193 313L193 351L171 351L171 313L148 313M213 242L213 200L126 200L126 176L234 176L234 242L213 242M214 129L234 137L234 163L126 119L126 96L234 54L234 79L214 86L214 129M193 94L154 108L193 122L193 94M126 16L126 40L234 40L234 16L126 16M234-26L234 0L193-24Q183-4 162-4Q146-4 136-14.50Q126-25 126-42L126-86L234-86L234-63L197-63L197-47L234-26M147-44Q147-37 151-32.50Q155-28 161-28Q168-28 172-32.50Q176-37 176-44L176-63L147-63L147-44M126-102L148-102L148-132L234-132L234-156L148-156L148-186L126-186L126-102Z"  horiz-adv-x="357" vert-adv-y="1000"  />

      
      <glyph glyph-name="uni4c" unicode="&#x4c;" d="M102 0Q94 0 94 8L94 707Q94 715 102 715L141 715Q149 715 149 707L149 51L481 51Q489 51 489 43L489 8Q489 0 481 0L102 0Z"  horiz-adv-x="501" vert-adv-y="1000"  />

      
      <glyph glyph-name="uni0139" unicode="&#x0139;" d="M148 691L126 691L126 607L148 607L148 637L234 637L234 661L148 661L148 691M126 591L126 568L192 568L126 521L126 499L234 499L234 522L166 522L234 572L234 591L126 591M180 365Q204 365 220.50 381.50Q237 398 237 423Q237 448 220.50 464.50Q204 481 180 481Q156 481 139.50 464.50Q123 448 123 423Q123 398 139.50 381.50Q156 365 180 365M180 457Q195 457 205 447.50Q215 438 215 423Q215 409 205 399Q195 389 180 389Q165 389 155.50 399Q146 409 146 423Q146 438 155.50 447.50Q165 457 180 457M148 313L148 355L126 355L126 290L234 290L234 313L193 313L193 351L171 351L171 313L148 313M213 242L213 200L126 200L126 176L234 176L234 242L213 242M214 129L234 137L234 163L126 119L126 96L234 54L234 79L214 86L214 129M193 94L154 108L193 122L193 94M126 16L126 40L234 40L234 16L126 16M234-26L234 0L193-24Q183-4 162-4Q146-4 136-14.50Q126-25 126-42L126-86L234-86L234-63L197-63L197-47L234-26M147-44Q147-37 151-32.50Q155-28 161-28Q168-28 172-32.50Q176-37 176-44L176-63L147-63L147-44M126-102L148-102L148-132L234-132L234-156L148-156L148-186L126-186L126-102Z"  horiz-adv-x="357" vert-adv-y="1000"  />

      
      <glyph glyph-name="uni013D" unicode="&#x013D;" d="M148 691L126 691L126 607L148 607L148 637L234 637L234 661L148 661L148 691M126 591L126 568L192 568L126 521L126 499L234 499L234 522L166 522L234 572L234 591L126 591M180 365Q204 365 220.50 381.50Q237 398 237 423Q237 448 220.50 464.50Q204 481 180 481Q156 481 139.50 464.50Q123 448 123 423Q123 398 139.50 381.50Q156 365 180 365M180 457Q195 457 205 447.50Q215 438 215 423Q215 409 205 399Q195 389 180 389Q165 389 155.50 399Q146 409 146 423Q146 438 155.50 447.50Q165 457 180 457M148 313L148 355L126 355L126 290L234 290L234 313L193 313L193 351L171 351L171 313L148 313M213 242L213 200L126 200L126 176L234 176L234 242L213 242M214 129L234 137L234 163L126 119L126 96L234 54L234 79L214 86L214 129M193 94L154 108L193 122L193 94M126 16L126 40L234 40L234 16L126 16M234-26L234 0L193-24Q183-4 162-4Q146-4 136-14.50Q126-25 126-42L126-86L234-86L234-63L197-63L197-47L234-26M147-44Q147-37 151-32.50Q155-28 161-28Q168-28 172-32.50Q176-37 176-44L176-63L147-63L147-44M126-102L148-102L148-132L234-132L234-156L148-156L148-186L126-186L126-102Z"  horiz-adv-x="357" vert-adv-y="1000"  />

      
      <glyph glyph-name="uni013B" unicode="&#x013B;" d="M148 691L126 691L126 607L148 607L148 637L234 637L234 661L148 661L148 691M126 591L126 568L192 568L126 521L126 499L234 499L234 522L166 522L234 572L234 591L126 591M180 365Q204 365 220.50 381.50Q237 398 237 423Q237 448 220.50 464.50Q204 481 180 481Q156 481 139.50 464.50Q123 448 123 423Q123 398 139.50 381.50Q156 365 180 365M180 457Q195 457 205 447.50Q215 438 215 423Q215 409 205 399Q195 389 180 389Q165 389 155.50 399Q146 409 146 423Q146 438 155.50 447.50Q165 457 180 457M148 313L148 355L126 355L126 290L234 290L234 313L193 313L193 351L171 351L171 313L148 313M213 242L213 200L126 200L126 176L234 176L234 242L213 242M214 129L234 137L234 163L126 119L126 96L234 54L234 79L214 86L214 129M193 94L154 108L193 122L193 94M126 16L126 40L234 40L234 16L126 16M234-26L234 0L193-24Q183-4 162-4Q146-4 136-14.50Q126-25 126-42L126-86L234-86L234-63L197-63L197-47L234-26M147-44Q147-37 151-32.50Q155-28 161-28Q168-28 172-32.50Q176-37 176-44L176-63L147-63L147-44M126-102L148-102L148-132L234-132L234-156L148-156L148-186L126-186L126-102Z"  horiz-adv-x="357" vert-adv-y="1000"  />

      
      <glyph glyph-name="uni013F" unicode="&#x013F;" d="M148 691L126 691L126 607L148 607L148 637L234 637L234 661L148 661L148 691M126 591L126 568L192 568L126 521L126 499L234 499L234 522L166 522L234 572L234 591L126 591M180 365Q204 365 220.50 381.50Q237 398 237 423Q237 448 220.50 464.50Q204 481 180 481Q156 481 139.50 464.50Q123 448 123 423Q123 398 139.50 381.50Q156 365 180 365M180 457Q195 457 205 447.50Q215 438 215 423Q215 409 205 399Q195 389 180 389Q165 389 155.50 399Q146 409 146 423Q146 438 155.50 447.50Q165 457 180 457M148 313L148 355L126 355L126 290L234 290L234 313L193 313L193 351L171 351L171 313L148 313M213 242L213 200L126 200L126 176L234 176L234 242L213 242M214 129L234 137L234 163L126 119L126 96L234 54L234 79L214 86L214 129M193 94L154 108L193 122L193 94M126 16L126 40L234 40L234 16L126 16M234-26L234 0L193-24Q183-4 162-4Q146-4 136-14.50Q126-25 126-42L126-86L234-86L234-63L197-63L197-47L234-26M147-44Q147-37 151-32.50Q155-28 161-28Q168-28 172-32.50Q176-37 176-44L176-63L147-63L147-44M126-102L148-102L148-132L234-132L234-156L148-156L148-186L126-186L126-102Z"  horiz-adv-x="357" vert-adv-y="1000"  />

      
      <glyph glyph-name="uni0141" unicode="&#x0141;" d="M148 691L126 691L126 607L148 607L148 637L234 637L234 661L148 661L148 691M126 591L126 568L192 568L126 521L126 499L234 499L234 522L166 522L234 572L234 591L126 591M180 365Q204 365 220.50 381.50Q237 398 237 423Q237 448 220.50 464.50Q204 481 180 481Q156 481 139.50 464.50Q123 448 123 423Q123 398 139.50 381.50Q156 365 180 365M180 457Q195 457 205 447.50Q215 438 215 423Q215 409 205 399Q195 389 180 389Q165 389 155.50 399Q146 409 146 423Q146 438 155.50 447.50Q165 457 180 457M148 313L148 355L126 355L126 290L234 290L234 313L193 313L193 351L171 351L171 313L148 313M213 242L213 200L126 200L126 176L234 176L234 242L213 242M214 129L234 137L234 163L126 119L126 96L234 54L234 79L214 86L214 129M193 94L154 108L193 122L193 94M126 16L126 40L234 40L234 16L126 16M234-26L234 0L193-24Q183-4 162-4Q146-4 136-14.50Q126-25 126-42L126-86L234-86L234-63L197-63L197-47L234-26M147-44Q147-37 151-32.50Q155-28 161-28Q168-28 172-32.50Q176-37 176-44L176-63L147-63L147-44M126-102L148-102L148-132L234-132L234-156L148-156L148-186L126-186L126-102Z"  horiz-adv-x="357" vert-adv-y="1000"  />

      
      <glyph glyph-name="uni4d" unicode="&#x4d;" d="M102 0Q94 0 94 8L94 707Q94 715 102 715L151 715Q158 715 161 709L347 379Q380 320 422 238L423 238Q433 255 441 271Q449 287 456 299Q479 344 498 377L685 709Q688 715 695 715L743 715Q752 715 752 707L752 8Q752 0 743 0L705 0Q696 0 696 8L696 407Q696 457 698 559L699 630L698 631Q659 555 606 461L449 178Q446 173 439 173L407 173Q400 173 397 178L239 461L147 631L146 630L147 560Q149 456 149 406L149 8Q149 0 141 0L102 0Z"  horiz-adv-x="846" vert-adv-y="1000"  />

      
      <glyph glyph-name="uni4e" unicode="&#x4e;" d="M102 0Q94 0 94 8L94 707Q94 715 102 715L146 715Q153 715 156 709L485 199Q534 120 554 85L556 88Q552 254 552 354L552 707Q552 715 561 715L599 715Q607 715 607 707L607 8Q607 0 599 0L555 0Q548 0 545 5L213 515Q186 557 147 625L146 624L147 560Q149 436 149 375L149 8Q149 0 140 0L102 0Z"  horiz-adv-x="701" vert-adv-y="1000"  />

      
      <glyph glyph-name="uni0143" unicode="&#x0143;" d="M148 691L126 691L126 607L148 607L148 637L234 637L234 661L148 661L148 691M126 591L126 568L192 568L126 521L126 499L234 499L234 522L166 522L234 572L234 591L126 591M180 365Q204 365 220.50 381.50Q237 398 237 423Q237 448 220.50 464.50Q204 481 180 481Q156 481 139.50 464.50Q123 448 123 423Q123 398 139.50 381.50Q156 365 180 365M180 457Q195 457 205 447.50Q215 438 215 423Q215 409 205 399Q195 389 180 389Q165 389 155.50 399Q146 409 146 423Q146 438 155.50 447.50Q165 457 180 457M148 313L148 355L126 355L126 290L234 290L234 313L193 313L193 351L171 351L171 313L148 313M213 242L213 200L126 200L126 176L234 176L234 242L213 242M214 129L234 137L234 163L126 119L126 96L234 54L234 79L214 86L214 129M193 94L154 108L193 122L193 94M126 16L126 40L234 40L234 16L126 16M234-26L234 0L193-24Q183-4 162-4Q146-4 136-14.50Q126-25 126-42L126-86L234-86L234-63L197-63L197-47L234-26M147-44Q147-37 151-32.50Q155-28 161-28Q168-28 172-32.50Q176-37 176-44L176-63L147-63L147-44M126-102L148-102L148-132L234-132L234-156L148-156L148-186L126-186L126-102Z"  horiz-adv-x="357" vert-adv-y="1000"  />

      
      <glyph glyph-name="uni0147" unicode="&#x0147;" d="M148 691L126 691L126 607L148 607L148 637L234 637L234 661L148 661L148 691M126 591L126 568L192 568L126 521L126 499L234 499L234 522L166 522L234 572L234 591L126 591M180 365Q204 365 220.50 381.50Q237 398 237 423Q237 448 220.50 464.50Q204 481 180 481Q156 481 139.50 464.50Q123 448 123 423Q123 398 139.50 381.50Q156 365 180 365M180 457Q195 457 205 447.50Q215 438 215 423Q215 409 205 399Q195 389 180 389Q165 389 155.50 399Q146 409 146 423Q146 438 155.50 447.50Q165 457 180 457M148 313L148 355L126 355L126 290L234 290L234 313L193 313L193 351L171 351L171 313L148 313M213 242L213 200L126 200L126 176L234 176L234 242L213 242M214 129L234 137L234 163L126 119L126 96L234 54L234 79L214 86L214 129M193 94L154 108L193 122L193 94M126 16L126 40L234 40L234 16L126 16M234-26L234 0L193-24Q183-4 162-4Q146-4 136-14.50Q126-25 126-42L126-86L234-86L234-63L197-63L197-47L234-26M147-44Q147-37 151-32.50Q155-28 161-28Q168-28 172-32.50Q176-37 176-44L176-63L147-63L147-44M126-102L148-102L148-132L234-132L234-156L148-156L148-186L126-186L126-102Z"  horiz-adv-x="357" vert-adv-y="1000"  />

      
      <glyph glyph-name="uni0145" unicode="&#x0145;" d="M148 691L126 691L126 607L148 607L148 637L234 637L234 661L148 661L148 691M126 591L126 568L192 568L126 521L126 499L234 499L234 522L166 522L234 572L234 591L126 591M180 365Q204 365 220.50 381.50Q237 398 237 423Q237 448 220.50 464.50Q204 481 180 481Q156 481 139.50 464.50Q123 448 123 423Q123 398 139.50 381.50Q156 365 180 365M180 457Q195 457 205 447.50Q215 438 215 423Q215 409 205 399Q195 389 180 389Q165 389 155.50 399Q146 409 146 423Q146 438 155.50 447.50Q165 457 180 457M148 313L148 355L126 355L126 290L234 290L234 313L193 313L193 351L171 351L171 313L148 313M213 242L213 200L126 200L126 176L234 176L234 242L213 242M214 129L234 137L234 163L126 119L126 96L234 54L234 79L214 86L214 129M193 94L154 108L193 122L193 94M126 16L126 40L234 40L234 16L126 16M234-26L234 0L193-24Q183-4 162-4Q146-4 136-14.50Q126-25 126-42L126-86L234-86L234-63L197-63L197-47L234-26M147-44Q147-37 151-32.50Q155-28 161-28Q168-28 172-32.50Q176-37 176-44L176-63L147-63L147-44M126-102L148-102L148-132L234-132L234-156L148-156L148-186L126-186L126-102Z"  horiz-adv-x="357" vert-adv-y="1000"  />

      
      <glyph glyph-name="uni014A" unicode="&#x014A;" d="M148 691L126 691L126 607L148 607L148 637L234 637L234 661L148 661L148 691M126 591L126 568L192 568L126 521L126 499L234 499L234 522L166 522L234 572L234 591L126 591M180 365Q204 365 220.50 381.50Q237 398 237 423Q237 448 220.50 464.50Q204 481 180 481Q156 481 139.50 464.50Q123 448 123 423Q123 398 139.50 381.50Q156 365 180 365M180 457Q195 457 205 447.50Q215 438 215 423Q215 409 205 399Q195 389 180 389Q165 389 155.50 399Q146 409 146 423Q146 438 155.50 447.50Q165 457 180 457M148 313L148 355L126 355L126 290L234 290L234 313L193 313L193 351L171 351L171 313L148 313M213 242L213 200L126 200L126 176L234 176L234 242L213 242M214 129L234 137L234 163L126 119L126 96L234 54L234 79L214 86L214 129M193 94L154 108L193 122L193 94M126 16L126 40L234 40L234 16L126 16M234-26L234 0L193-24Q183-4 162-4Q146-4 136-14.50Q126-25 126-42L126-86L234-86L234-63L197-63L197-47L234-26M147-44Q147-37 151-32.50Q155-28 161-28Q168-28 172-32.50Q176-37 176-44L176-63L147-63L147-44M126-102L148-102L148-132L234-132L234-156L148-156L148-186L126-186L126-102Z"  horiz-adv-x="357" vert-adv-y="1000"  />

      
      <glyph glyph-name="unid1" unicode="&#xd1;" d="M148 691L126 691L126 607L148 607L148 637L234 637L234 661L148 661L148 691M126 591L126 568L192 568L126 521L126 499L234 499L234 522L166 522L234 572L234 591L126 591M180 365Q204 365 220.50 381.50Q237 398 237 423Q237 448 220.50 464.50Q204 481 180 481Q156 481 139.50 464.50Q123 448 123 423Q123 398 139.50 381.50Q156 365 180 365M180 457Q195 457 205 447.50Q215 438 215 423Q215 409 205 399Q195 389 180 389Q165 389 155.50 399Q146 409 146 423Q146 438 155.50 447.50Q165 457 180 457M148 313L148 355L126 355L126 290L234 290L234 313L193 313L193 351L171 351L171 313L148 313M213 242L213 200L126 200L126 176L234 176L234 242L213 242M214 129L234 137L234 163L126 119L126 96L234 54L234 79L214 86L214 129M193 94L154 108L193 122L193 94M126 16L126 40L234 40L234 16L126 16M234-26L234 0L193-24Q183-4 162-4Q146-4 136-14.50Q126-25 126-42L126-86L234-86L234-63L197-63L197-47L234-26M147-44Q147-37 151-32.50Q155-28 161-28Q168-28 172-32.50Q176-37 176-44L176-63L147-63L147-44M126-102L148-102L148-132L234-132L234-156L148-156L148-186L126-186L126-102Z"  horiz-adv-x="357" vert-adv-y="1000"  />

      
      <glyph glyph-name="uni4f" unicode="&#x4f;" d="M600 235Q600 163 567.50 107Q535 51 474.50 20Q414-11 335-11Q255-11 195 20Q135 51 102 107Q69 163 69 235L69 474Q69 549 101.50 606.50Q134 664 194 695Q254 726 335 726Q415 726 475 695Q535 664 567.50 606.50Q600 549 600 474L600 235M124 235Q124 148 181 94.50Q238 41 335 41Q432 41 488.50 94.50Q545 148 545 235L545 474Q545 566 488.50 620Q432 674 335 674Q237 674 180.50 620Q124 566 124 474L124 235Z"  horiz-adv-x="669" vert-adv-y="1000"  />

      
      <glyph glyph-name="unid3" unicode="&#xd3;" d="M148 691L126 691L126 607L148 607L148 637L234 637L234 661L148 661L148 691M126 591L126 568L192 568L126 521L126 499L234 499L234 522L166 522L234 572L234 591L126 591M180 365Q204 365 220.50 381.50Q237 398 237 423Q237 448 220.50 464.50Q204 481 180 481Q156 481 139.50 464.50Q123 448 123 423Q123 398 139.50 381.50Q156 365 180 365M180 457Q195 457 205 447.50Q215 438 215 423Q215 409 205 399Q195 389 180 389Q165 389 155.50 399Q146 409 146 423Q146 438 155.50 447.50Q165 457 180 457M148 313L148 355L126 355L126 290L234 290L234 313L193 313L193 351L171 351L171 313L148 313M213 242L213 200L126 200L126 176L234 176L234 242L213 242M214 129L234 137L234 163L126 119L126 96L234 54L234 79L214 86L214 129M193 94L154 108L193 122L193 94M126 16L126 40L234 40L234 16L126 16M234-26L234 0L193-24Q183-4 162-4Q146-4 136-14.50Q126-25 126-42L126-86L234-86L234-63L197-63L197-47L234-26M147-44Q147-37 151-32.50Q155-28 161-28Q168-28 172-32.50Q176-37 176-44L176-63L147-63L147-44M126-102L148-102L148-132L234-132L234-156L148-156L148-186L126-186L126-102Z"  horiz-adv-x="357" vert-adv-y="1000"  />

      
      <glyph glyph-name="unid4" unicode="&#xd4;" d="M148 691L126 691L126 607L148 607L148 637L234 637L234 661L148 661L148 691M126 591L126 568L192 568L126 521L126 499L234 499L234 522L166 522L234 572L234 591L126 591M180 365Q204 365 220.50 381.50Q237 398 237 423Q237 448 220.50 464.50Q204 481 180 481Q156 481 139.50 464.50Q123 448 123 423Q123 398 139.50 381.50Q156 365 180 365M180 457Q195 457 205 447.50Q215 438 215 423Q215 409 205 399Q195 389 180 389Q165 389 155.50 399Q146 409 146 423Q146 438 155.50 447.50Q165 457 180 457M148 313L148 355L126 355L126 290L234 290L234 313L193 313L193 351L171 351L171 313L148 313M213 242L213 200L126 200L126 176L234 176L234 242L213 242M214 129L234 137L234 163L126 119L126 96L234 54L234 79L214 86L214 129M193 94L154 108L193 122L193 94M126 16L126 40L234 40L234 16L126 16M234-26L234 0L193-24Q183-4 162-4Q146-4 136-14.50Q126-25 126-42L126-86L234-86L234-63L197-63L197-47L234-26M147-44Q147-37 151-32.50Q155-28 161-28Q168-28 172-32.50Q176-37 176-44L176-63L147-63L147-44M126-102L148-102L148-132L234-132L234-156L148-156L148-186L126-186L126-102Z"  horiz-adv-x="357" vert-adv-y="1000"  />

      
      <glyph glyph-name="unid6" unicode="&#xd6;" d="M148 691L126 691L126 607L148 607L148 637L234 637L234 661L148 661L148 691M126 591L126 568L192 568L126 521L126 499L234 499L234 522L166 522L234 572L234 591L126 591M180 365Q204 365 220.50 381.50Q237 398 237 423Q237 448 220.50 464.50Q204 481 180 481Q156 481 139.50 464.50Q123 448 123 423Q123 398 139.50 381.50Q156 365 180 365M180 457Q195 457 205 447.50Q215 438 215 423Q215 409 205 399Q195 389 180 389Q165 389 155.50 399Q146 409 146 423Q146 438 155.50 447.50Q165 457 180 457M148 313L148 355L126 355L126 290L234 290L234 313L193 313L193 351L171 351L171 313L148 313M213 242L213 200L126 200L126 176L234 176L234 242L213 242M214 129L234 137L234 163L126 119L126 96L234 54L234 79L214 86L214 129M193 94L154 108L193 122L193 94M126 16L126 40L234 40L234 16L126 16M234-26L234 0L193-24Q183-4 162-4Q146-4 136-14.50Q126-25 126-42L126-86L234-86L234-63L197-63L197-47L234-26M147-44Q147-37 151-32.50Q155-28 161-28Q168-28 172-32.50Q176-37 176-44L176-63L147-63L147-44M126-102L148-102L148-132L234-132L234-156L148-156L148-186L126-186L126-102Z"  horiz-adv-x="357" vert-adv-y="1000"  />

      
      <glyph glyph-name="unid2" unicode="&#xd2;" d="M148 691L126 691L126 607L148 607L148 637L234 637L234 661L148 661L148 691M126 591L126 568L192 568L126 521L126 499L234 499L234 522L166 522L234 572L234 591L126 591M180 365Q204 365 220.50 381.50Q237 398 237 423Q237 448 220.50 464.50Q204 481 180 481Q156 481 139.50 464.50Q123 448 123 423Q123 398 139.50 381.50Q156 365 180 365M180 457Q195 457 205 447.50Q215 438 215 423Q215 409 205 399Q195 389 180 389Q165 389 155.50 399Q146 409 146 423Q146 438 155.50 447.50Q165 457 180 457M148 313L148 355L126 355L126 290L234 290L234 313L193 313L193 351L171 351L171 313L148 313M213 242L213 200L126 200L126 176L234 176L234 242L213 242M214 129L234 137L234 163L126 119L126 96L234 54L234 79L214 86L214 129M193 94L154 108L193 122L193 94M126 16L126 40L234 40L234 16L126 16M234-26L234 0L193-24Q183-4 162-4Q146-4 136-14.50Q126-25 126-42L126-86L234-86L234-63L197-63L197-47L234-26M147-44Q147-37 151-32.50Q155-28 161-28Q168-28 172-32.50Q176-37 176-44L176-63L147-63L147-44M126-102L148-102L148-132L234-132L234-156L148-156L148-186L126-186L126-102Z"  horiz-adv-x="357" vert-adv-y="1000"  />

      
      <glyph glyph-name="uni0150" unicode="&#x0150;" d="M148 691L126 691L126 607L148 607L148 637L234 637L234 661L148 661L148 691M126 591L126 568L192 568L126 521L126 499L234 499L234 522L166 522L234 572L234 591L126 591M180 365Q204 365 220.50 381.50Q237 398 237 423Q237 448 220.50 464.50Q204 481 180 481Q156 481 139.50 464.50Q123 448 123 423Q123 398 139.50 381.50Q156 365 180 365M180 457Q195 457 205 447.50Q215 438 215 423Q215 409 205 399Q195 389 180 389Q165 389 155.50 399Q146 409 146 423Q146 438 155.50 447.50Q165 457 180 457M148 313L148 355L126 355L126 290L234 290L234 313L193 313L193 351L171 351L171 313L148 313M213 242L213 200L126 200L126 176L234 176L234 242L213 242M214 129L234 137L234 163L126 119L126 96L234 54L234 79L214 86L214 129M193 94L154 108L193 122L193 94M126 16L126 40L234 40L234 16L126 16M234-26L234 0L193-24Q183-4 162-4Q146-4 136-14.50Q126-25 126-42L126-86L234-86L234-63L197-63L197-47L234-26M147-44Q147-37 151-32.50Q155-28 161-28Q168-28 172-32.50Q176-37 176-44L176-63L147-63L147-44M126-102L148-102L148-132L234-132L234-156L148-156L148-186L126-186L126-102Z"  horiz-adv-x="357" vert-adv-y="1000"  />

      
      <glyph glyph-name="uni014C" unicode="&#x014C;" d="M148 691L126 691L126 607L148 607L148 637L234 637L234 661L148 661L148 691M126 591L126 568L192 568L126 521L126 499L234 499L234 522L166 522L234 572L234 591L126 591M180 365Q204 365 220.50 381.50Q237 398 237 423Q237 448 220.50 464.50Q204 481 180 481Q156 481 139.50 464.50Q123 448 123 423Q123 398 139.50 381.50Q156 365 180 365M180 457Q195 457 205 447.50Q215 438 215 423Q215 409 205 399Q195 389 180 389Q165 389 155.50 399Q146 409 146 423Q146 438 155.50 447.50Q165 457 180 457M148 313L148 355L126 355L126 290L234 290L234 313L193 313L193 351L171 351L171 313L148 313M213 242L213 200L126 200L126 176L234 176L234 242L213 242M214 129L234 137L234 163L126 119L126 96L234 54L234 79L214 86L214 129M193 94L154 108L193 122L193 94M126 16L126 40L234 40L234 16L126 16M234-26L234 0L193-24Q183-4 162-4Q146-4 136-14.50Q126-25 126-42L126-86L234-86L234-63L197-63L197-47L234-26M147-44Q147-37 151-32.50Q155-28 161-28Q168-28 172-32.50Q176-37 176-44L176-63L147-63L147-44M126-102L148-102L148-132L234-132L234-156L148-156L148-186L126-186L126-102Z"  horiz-adv-x="357" vert-adv-y="1000"  />

      
      <glyph glyph-name="unid8" unicode="&#xd8;" d="M148 691L126 691L126 607L148 607L148 637L234 637L234 661L148 661L148 691M126 591L126 568L192 568L126 521L126 499L234 499L234 522L166 522L234 572L234 591L126 591M180 365Q204 365 220.50 381.50Q237 398 237 423Q237 448 220.50 464.50Q204 481 180 481Q156 481 139.50 464.50Q123 448 123 423Q123 398 139.50 381.50Q156 365 180 365M180 457Q195 457 205 447.50Q215 438 215 423Q215 409 205 399Q195 389 180 389Q165 389 155.50 399Q146 409 146 423Q146 438 155.50 447.50Q165 457 180 457M148 313L148 355L126 355L126 290L234 290L234 313L193 313L193 351L171 351L171 313L148 313M213 242L213 200L126 200L126 176L234 176L234 242L213 242M214 129L234 137L234 163L126 119L126 96L234 54L234 79L214 86L214 129M193 94L154 108L193 122L193 94M126 16L126 40L234 40L234 16L126 16M234-26L234 0L193-24Q183-4 162-4Q146-4 136-14.50Q126-25 126-42L126-86L234-86L234-63L197-63L197-47L234-26M147-44Q147-37 151-32.50Q155-28 161-28Q168-28 172-32.50Q176-37 176-44L176-63L147-63L147-44M126-102L148-102L148-132L234-132L234-156L148-156L148-186L126-186L126-102Z"  horiz-adv-x="357" vert-adv-y="1000"  />

      
      <glyph glyph-name="unid5" unicode="&#xd5;" d="M148 691L126 691L126 607L148 607L148 637L234 637L234 661L148 661L148 691M126 591L126 568L192 568L126 521L126 499L234 499L234 522L166 522L234 572L234 591L126 591M180 365Q204 365 220.50 381.50Q237 398 237 423Q237 448 220.50 464.50Q204 481 180 481Q156 481 139.50 464.50Q123 448 123 423Q123 398 139.50 381.50Q156 365 180 365M180 457Q195 457 205 447.50Q215 438 215 423Q215 409 205 399Q195 389 180 389Q165 389 155.50 399Q146 409 146 423Q146 438 155.50 447.50Q165 457 180 457M148 313L148 355L126 355L126 290L234 290L234 313L193 313L193 351L171 351L171 313L148 313M213 242L213 200L126 200L126 176L234 176L234 242L213 242M214 129L234 137L234 163L126 119L126 96L234 54L234 79L214 86L214 129M193 94L154 108L193 122L193 94M126 16L126 40L234 40L234 16L126 16M234-26L234 0L193-24Q183-4 162-4Q146-4 136-14.50Q126-25 126-42L126-86L234-86L234-63L197-63L197-47L234-26M147-44Q147-37 151-32.50Q155-28 161-28Q168-28 172-32.50Q176-37 176-44L176-63L147-63L147-44M126-102L148-102L148-132L234-132L234-156L148-156L148-186L126-186L126-102Z"  horiz-adv-x="357" vert-adv-y="1000"  />

      
      <glyph glyph-name="uni0152" unicode="&#x0152;" d="M148 691L126 691L126 607L148 607L148 637L234 637L234 661L148 661L148 691M126 591L126 568L192 568L126 521L126 499L234 499L234 522L166 522L234 572L234 591L126 591M180 365Q204 365 220.50 381.50Q237 398 237 423Q237 448 220.50 464.50Q204 481 180 481Q156 481 139.50 464.50Q123 448 123 423Q123 398 139.50 381.50Q156 365 180 365M180 457Q195 457 205 447.50Q215 438 215 423Q215 409 205 399Q195 389 180 389Q165 389 155.50 399Q146 409 146 423Q146 438 155.50 447.50Q165 457 180 457M148 313L148 355L126 355L126 290L234 290L234 313L193 313L193 351L171 351L171 313L148 313M213 242L213 200L126 200L126 176L234 176L234 242L213 242M214 129L234 137L234 163L126 119L126 96L234 54L234 79L214 86L214 129M193 94L154 108L193 122L193 94M126 16L126 40L234 40L234 16L126 16M234-26L234 0L193-24Q183-4 162-4Q146-4 136-14.50Q126-25 126-42L126-86L234-86L234-63L197-63L197-47L234-26M147-44Q147-37 151-32.50Q155-28 161-28Q168-28 172-32.50Q176-37 176-44L176-63L147-63L147-44M126-102L148-102L148-132L234-132L234-156L148-156L148-186L126-186L126-102Z"  horiz-adv-x="357" vert-adv-y="1000"  />

      
      <glyph glyph-name="uni50" unicode="&#x50;" d="M333 715Q450 715 514 655.50Q578 596 578 490Q578 383 514 324Q450 265 333 265L149 265L149 8Q149 0 141 0L103 0Q94 0 94 8L94 707Q94 715 103 715L333 715M327 316Q424 316 473.50 360Q523 404 523 490Q523 575 473.50 619.50Q424 664 327 664L149 664L149 316L327 316Z"  horiz-adv-x="617" vert-adv-y="1000"  />

      
      <glyph glyph-name="unide" unicode="&#xde;" d="M148 691L126 691L126 607L148 607L148 637L234 637L234 661L148 661L148 691M126 591L126 568L192 568L126 521L126 499L234 499L234 522L166 522L234 572L234 591L126 591M180 365Q204 365 220.50 381.50Q237 398 237 423Q237 448 220.50 464.50Q204 481 180 481Q156 481 139.50 464.50Q123 448 123 423Q123 398 139.50 381.50Q156 365 180 365M180 457Q195 457 205 447.50Q215 438 215 423Q215 409 205 399Q195 389 180 389Q165 389 155.50 399Q146 409 146 423Q146 438 155.50 447.50Q165 457 180 457M148 313L148 355L126 355L126 290L234 290L234 313L193 313L193 351L171 351L171 313L148 313M213 242L213 200L126 200L126 176L234 176L234 242L213 242M214 129L234 137L234 163L126 119L126 96L234 54L234 79L214 86L214 129M193 94L154 108L193 122L193 94M126 16L126 40L234 40L234 16L126 16M234-26L234 0L193-24Q183-4 162-4Q146-4 136-14.50Q126-25 126-42L126-86L234-86L234-63L197-63L197-47L234-26M147-44Q147-37 151-32.50Q155-28 161-28Q168-28 172-32.50Q176-37 176-44L176-63L147-63L147-44M126-102L148-102L148-132L234-132L234-156L148-156L148-186L126-186L126-102Z"  horiz-adv-x="357" vert-adv-y="1000"  />

      
      <glyph glyph-name="uni51" unicode="&#x51;" d="M581-34Q578-37 574.50-37Q571-37 569-34L500 38Q430-11 335-11Q255-11 194.50 20.50Q134 52 101.50 108.50Q69 165 69 237L69 474Q69 549 101.50 606Q134 663 194.50 694.50Q255 726 335 726Q415 726 475 694.50Q535 663 567.50 606Q600 549 600 474L600 237Q600 135 536 69L602-1Q608-7 602-13L581-34M124 237Q124 180 149.50 135.50Q175 91 223 66Q271 41 335 41Q405 41 462 78L356 189Q351 196 356 201L377 222Q380 225 383.50 225Q387 225 389 222L497 109Q520 134 532.50 167Q545 200 545 237L545 474Q545 565 488.50 619.50Q432 674 335 674Q237 674 180.50 619.50Q124 565 124 474L124 237Z"  horiz-adv-x="670" vert-adv-y="1000"  />

      
      <glyph glyph-name="uni52" unicode="&#x52;" d="M527 0Q519 0 516 5L299 293L149 293L149 8Q149 0 141 0L102 0Q94 0 94 8L94 707Q94 715 102 715L324 715Q438 715 503 659Q568 603 568 504Q568 415 513.50 360.50Q459 306 362 297L581 10L582 6Q582 0 575 0L527 0M149 664L149 344L325 344Q415 344 463.50 384.50Q512 425 512 503Q512 581 463.50 622.50Q415 664 325 664L149 664Z"  horiz-adv-x="623" vert-adv-y="1000"  />

      
      <glyph glyph-name="uni0154" unicode="&#x0154;" d="M148 691L126 691L126 607L148 607L148 637L234 637L234 661L148 661L148 691M126 591L126 568L192 568L126 521L126 499L234 499L234 522L166 522L234 572L234 591L126 591M180 365Q204 365 220.50 381.50Q237 398 237 423Q237 448 220.50 464.50Q204 481 180 481Q156 481 139.50 464.50Q123 448 123 423Q123 398 139.50 381.50Q156 365 180 365M180 457Q195 457 205 447.50Q215 438 215 423Q215 409 205 399Q195 389 180 389Q165 389 155.50 399Q146 409 146 423Q146 438 155.50 447.50Q165 457 180 457M148 313L148 355L126 355L126 290L234 290L234 313L193 313L193 351L171 351L171 313L148 313M213 242L213 200L126 200L126 176L234 176L234 242L213 242M214 129L234 137L234 163L126 119L126 96L234 54L234 79L214 86L214 129M193 94L154 108L193 122L193 94M126 16L126 40L234 40L234 16L126 16M234-26L234 0L193-24Q183-4 162-4Q146-4 136-14.50Q126-25 126-42L126-86L234-86L234-63L197-63L197-47L234-26M147-44Q147-37 151-32.50Q155-28 161-28Q168-28 172-32.50Q176-37 176-44L176-63L147-63L147-44M126-102L148-102L148-132L234-132L234-156L148-156L148-186L126-186L126-102Z"  horiz-adv-x="357" vert-adv-y="1000"  />

      
      <glyph glyph-name="uni0158" unicode="&#x0158;" d="M148 691L126 691L126 607L148 607L148 637L234 637L234 661L148 661L148 691M126 591L126 568L192 568L126 521L126 499L234 499L234 522L166 522L234 572L234 591L126 591M180 365Q204 365 220.50 381.50Q237 398 237 423Q237 448 220.50 464.50Q204 481 180 481Q156 481 139.50 464.50Q123 448 123 423Q123 398 139.50 381.50Q156 365 180 365M180 457Q195 457 205 447.50Q215 438 215 423Q215 409 205 399Q195 389 180 389Q165 389 155.50 399Q146 409 146 423Q146 438 155.50 447.50Q165 457 180 457M148 313L148 355L126 355L126 290L234 290L234 313L193 313L193 351L171 351L171 313L148 313M213 242L213 200L126 200L126 176L234 176L234 242L213 242M214 129L234 137L234 163L126 119L126 96L234 54L234 79L214 86L214 129M193 94L154 108L193 122L193 94M126 16L126 40L234 40L234 16L126 16M234-26L234 0L193-24Q183-4 162-4Q146-4 136-14.50Q126-25 126-42L126-86L234-86L234-63L197-63L197-47L234-26M147-44Q147-37 151-32.50Q155-28 161-28Q168-28 172-32.50Q176-37 176-44L176-63L147-63L147-44M126-102L148-102L148-132L234-132L234-156L148-156L148-186L126-186L126-102Z"  horiz-adv-x="357" vert-adv-y="1000"  />

      
      <glyph glyph-name="uni0156" unicode="&#x0156;" d="M148 691L126 691L126 607L148 607L148 637L234 637L234 661L148 661L148 691M126 591L126 568L192 568L126 521L126 499L234 499L234 522L166 522L234 572L234 591L126 591M180 365Q204 365 220.50 381.50Q237 398 237 423Q237 448 220.50 464.50Q204 481 180 481Q156 481 139.50 464.50Q123 448 123 423Q123 398 139.50 381.50Q156 365 180 365M180 457Q195 457 205 447.50Q215 438 215 423Q215 409 205 399Q195 389 180 389Q165 389 155.50 399Q146 409 146 423Q146 438 155.50 447.50Q165 457 180 457M148 313L148 355L126 355L126 290L234 290L234 313L193 313L193 351L171 351L171 313L148 313M213 242L213 200L126 200L126 176L234 176L234 242L213 242M214 129L234 137L234 163L126 119L126 96L234 54L234 79L214 86L214 129M193 94L154 108L193 122L193 94M126 16L126 40L234 40L234 16L126 16M234-26L234 0L193-24Q183-4 162-4Q146-4 136-14.50Q126-25 126-42L126-86L234-86L234-63L197-63L197-47L234-26M147-44Q147-37 151-32.50Q155-28 161-28Q168-28 172-32.50Q176-37 176-44L176-63L147-63L147-44M126-102L148-102L148-132L234-132L234-156L148-156L148-186L126-186L126-102Z"  horiz-adv-x="357" vert-adv-y="1000"  />

      
      <glyph glyph-name="uni53" unicode="&#x53;" d="M554 185Q554 90 484.50 39.50Q415-11 302-11Q229-11 171.50 11.50Q114 34 54 84Q48 90 53 96L74 125Q79 131 86 127Q140 83 191.50 62.50Q243 42 303 41Q390 41 444 78Q498 115 498 185Q498 228 476.50 256Q455 284 411.50 303Q368 322 293 339Q179 365 117 413Q55 461 55 546Q55 634 124.50 680Q194 726 299 726Q366 726 421.50 706.50Q477 687 532 646Q538 642 534 634L514 606Q512 602 508.50 601.50Q505 601 502 603Q410 672 293 674Q214 674 162.50 640.50Q111 607 111 544Q111 484 158.50 450Q206 416 306 393Q391 373 444.50 348Q498 323 526 283.50Q554 244 554 185Z"  horiz-adv-x="599" vert-adv-y="1000"  />

      
      <glyph glyph-name="uni015A" unicode="&#x015A;" d="M148 691L126 691L126 607L148 607L148 637L234 637L234 661L148 661L148 691M126 591L126 568L192 568L126 521L126 499L234 499L234 522L166 522L234 572L234 591L126 591M180 365Q204 365 220.50 381.50Q237 398 237 423Q237 448 220.50 464.50Q204 481 180 481Q156 481 139.50 464.50Q123 448 123 423Q123 398 139.50 381.50Q156 365 180 365M180 457Q195 457 205 447.50Q215 438 215 423Q215 409 205 399Q195 389 180 389Q165 389 155.50 399Q146 409 146 423Q146 438 155.50 447.50Q165 457 180 457M148 313L148 355L126 355L126 290L234 290L234 313L193 313L193 351L171 351L171 313L148 313M213 242L213 200L126 200L126 176L234 176L234 242L213 242M214 129L234 137L234 163L126 119L126 96L234 54L234 79L214 86L214 129M193 94L154 108L193 122L193 94M126 16L126 40L234 40L234 16L126 16M234-26L234 0L193-24Q183-4 162-4Q146-4 136-14.50Q126-25 126-42L126-86L234-86L234-63L197-63L197-47L234-26M147-44Q147-37 151-32.50Q155-28 161-28Q168-28 172-32.50Q176-37 176-44L176-63L147-63L147-44M126-102L148-102L148-132L234-132L234-156L148-156L148-186L126-186L126-102Z"  horiz-adv-x="357" vert-adv-y="1000"  />

      
      <glyph glyph-name="uni0160" unicode="&#x0160;" d="M148 691L126 691L126 607L148 607L148 637L234 637L234 661L148 661L148 691M126 591L126 568L192 568L126 521L126 499L234 499L234 522L166 522L234 572L234 591L126 591M180 365Q204 365 220.50 381.50Q237 398 237 423Q237 448 220.50 464.50Q204 481 180 481Q156 481 139.50 464.50Q123 448 123 423Q123 398 139.50 381.50Q156 365 180 365M180 457Q195 457 205 447.50Q215 438 215 423Q215 409 205 399Q195 389 180 389Q165 389 155.50 399Q146 409 146 423Q146 438 155.50 447.50Q165 457 180 457M148 313L148 355L126 355L126 290L234 290L234 313L193 313L193 351L171 351L171 313L148 313M213 242L213 200L126 200L126 176L234 176L234 242L213 242M214 129L234 137L234 163L126 119L126 96L234 54L234 79L214 86L214 129M193 94L154 108L193 122L193 94M126 16L126 40L234 40L234 16L126 16M234-26L234 0L193-24Q183-4 162-4Q146-4 136-14.50Q126-25 126-42L126-86L234-86L234-63L197-63L197-47L234-26M147-44Q147-37 151-32.50Q155-28 161-28Q168-28 172-32.50Q176-37 176-44L176-63L147-63L147-44M126-102L148-102L148-132L234-132L234-156L148-156L148-186L126-186L126-102Z"  horiz-adv-x="357" vert-adv-y="1000"  />

      
      <glyph glyph-name="uni015E" unicode="&#x015E;" d="M148 691L126 691L126 607L148 607L148 637L234 637L234 661L148 661L148 691M126 591L126 568L192 568L126 521L126 499L234 499L234 522L166 522L234 572L234 591L126 591M180 365Q204 365 220.50 381.50Q237 398 237 423Q237 448 220.50 464.50Q204 481 180 481Q156 481 139.50 464.50Q123 448 123 423Q123 398 139.50 381.50Q156 365 180 365M180 457Q195 457 205 447.50Q215 438 215 423Q215 409 205 399Q195 389 180 389Q165 389 155.50 399Q146 409 146 423Q146 438 155.50 447.50Q165 457 180 457M148 313L148 355L126 355L126 290L234 290L234 313L193 313L193 351L171 351L171 313L148 313M213 242L213 200L126 200L126 176L234 176L234 242L213 242M214 129L234 137L234 163L126 119L126 96L234 54L234 79L214 86L214 129M193 94L154 108L193 122L193 94M126 16L126 40L234 40L234 16L126 16M234-26L234 0L193-24Q183-4 162-4Q146-4 136-14.50Q126-25 126-42L126-86L234-86L234-63L197-63L197-47L234-26M147-44Q147-37 151-32.50Q155-28 161-28Q168-28 172-32.50Q176-37 176-44L176-63L147-63L147-44M126-102L148-102L148-132L234-132L234-156L148-156L148-186L126-186L126-102Z"  horiz-adv-x="357" vert-adv-y="1000"  />

      
      <glyph glyph-name="uni0218" unicode="&#x0218;" d="M148 691L126 691L126 607L148 607L148 637L234 637L234 661L148 661L148 691M126 591L126 568L192 568L126 521L126 499L234 499L234 522L166 522L234 572L234 591L126 591M180 365Q204 365 220.50 381.50Q237 398 237 423Q237 448 220.50 464.50Q204 481 180 481Q156 481 139.50 464.50Q123 448 123 423Q123 398 139.50 381.50Q156 365 180 365M180 457Q195 457 205 447.50Q215 438 215 423Q215 409 205 399Q195 389 180 389Q165 389 155.50 399Q146 409 146 423Q146 438 155.50 447.50Q165 457 180 457M148 313L148 355L126 355L126 290L234 290L234 313L193 313L193 351L171 351L171 313L148 313M213 242L213 200L126 200L126 176L234 176L234 242L213 242M214 129L234 137L234 163L126 119L126 96L234 54L234 79L214 86L214 129M193 94L154 108L193 122L193 94M126 16L126 40L234 40L234 16L126 16M234-26L234 0L193-24Q183-4 162-4Q146-4 136-14.50Q126-25 126-42L126-86L234-86L234-63L197-63L197-47L234-26M147-44Q147-37 151-32.50Q155-28 161-28Q168-28 172-32.50Q176-37 176-44L176-63L147-63L147-44M126-102L148-102L148-132L234-132L234-156L148-156L148-186L126-186L126-102Z"  horiz-adv-x="357" vert-adv-y="1000"  />

      
      <glyph glyph-name="uni54" unicode="&#x54;" d="M524 715Q533 715 533 707L533 672Q533 664 524 664L299 664L299 8Q299 0 290 0L252 0Q243 0 243 8L243 664L20 664Q12 664 12 672L12 707Q12 715 20 715L524 715Z"  horiz-adv-x="545" vert-adv-y="1000"  />

      
      <glyph glyph-name="uni0166" unicode="&#x0166;" d="M148 691L126 691L126 607L148 607L148 637L234 637L234 661L148 661L148 691M126 591L126 568L192 568L126 521L126 499L234 499L234 522L166 522L234 572L234 591L126 591M180 365Q204 365 220.50 381.50Q237 398 237 423Q237 448 220.50 464.50Q204 481 180 481Q156 481 139.50 464.50Q123 448 123 423Q123 398 139.50 381.50Q156 365 180 365M180 457Q195 457 205 447.50Q215 438 215 423Q215 409 205 399Q195 389 180 389Q165 389 155.50 399Q146 409 146 423Q146 438 155.50 447.50Q165 457 180 457M148 313L148 355L126 355L126 290L234 290L234 313L193 313L193 351L171 351L171 313L148 313M213 242L213 200L126 200L126 176L234 176L234 242L213 242M214 129L234 137L234 163L126 119L126 96L234 54L234 79L214 86L214 129M193 94L154 108L193 122L193 94M126 16L126 40L234 40L234 16L126 16M234-26L234 0L193-24Q183-4 162-4Q146-4 136-14.50Q126-25 126-42L126-86L234-86L234-63L197-63L197-47L234-26M147-44Q147-37 151-32.50Q155-28 161-28Q168-28 172-32.50Q176-37 176-44L176-63L147-63L147-44M126-102L148-102L148-132L234-132L234-156L148-156L148-186L126-186L126-102Z"  horiz-adv-x="357" vert-adv-y="1000"  />

      
      <glyph glyph-name="uni0164" unicode="&#x0164;" d="M148 691L126 691L126 607L148 607L148 637L234 637L234 661L148 661L148 691M126 591L126 568L192 568L126 521L126 499L234 499L234 522L166 522L234 572L234 591L126 591M180 365Q204 365 220.50 381.50Q237 398 237 423Q237 448 220.50 464.50Q204 481 180 481Q156 481 139.50 464.50Q123 448 123 423Q123 398 139.50 381.50Q156 365 180 365M180 457Q195 457 205 447.50Q215 438 215 423Q215 409 205 399Q195 389 180 389Q165 389 155.50 399Q146 409 146 423Q146 438 155.50 447.50Q165 457 180 457M148 313L148 355L126 355L126 290L234 290L234 313L193 313L193 351L171 351L171 313L148 313M213 242L213 200L126 200L126 176L234 176L234 242L213 242M214 129L234 137L234 163L126 119L126 96L234 54L234 79L214 86L214 129M193 94L154 108L193 122L193 94M126 16L126 40L234 40L234 16L126 16M234-26L234 0L193-24Q183-4 162-4Q146-4 136-14.50Q126-25 126-42L126-86L234-86L234-63L197-63L197-47L234-26M147-44Q147-37 151-32.50Q155-28 161-28Q168-28 172-32.50Q176-37 176-44L176-63L147-63L147-44M126-102L148-102L148-132L234-132L234-156L148-156L148-186L126-186L126-102Z"  horiz-adv-x="357" vert-adv-y="1000"  />

      
      <glyph glyph-name="uni0162" unicode="&#x0162;" d="M148 691L126 691L126 607L148 607L148 637L234 637L234 661L148 661L148 691M126 591L126 568L192 568L126 521L126 499L234 499L234 522L166 522L234 572L234 591L126 591M180 365Q204 365 220.50 381.50Q237 398 237 423Q237 448 220.50 464.50Q204 481 180 481Q156 481 139.50 464.50Q123 448 123 423Q123 398 139.50 381.50Q156 365 180 365M180 457Q195 457 205 447.50Q215 438 215 423Q215 409 205 399Q195 389 180 389Q165 389 155.50 399Q146 409 146 423Q146 438 155.50 447.50Q165 457 180 457M148 313L148 355L126 355L126 290L234 290L234 313L193 313L193 351L171 351L171 313L148 313M213 242L213 200L126 200L126 176L234 176L234 242L213 242M214 129L234 137L234 163L126 119L126 96L234 54L234 79L214 86L214 129M193 94L154 108L193 122L193 94M126 16L126 40L234 40L234 16L126 16M234-26L234 0L193-24Q183-4 162-4Q146-4 136-14.50Q126-25 126-42L126-86L234-86L234-63L197-63L197-47L234-26M147-44Q147-37 151-32.50Q155-28 161-28Q168-28 172-32.50Q176-37 176-44L176-63L147-63L147-44M126-102L148-102L148-132L234-132L234-156L148-156L148-186L126-186L126-102Z"  horiz-adv-x="357" vert-adv-y="1000"  />

      
      <glyph glyph-name="uni021A" unicode="&#x021A;" d="M148 691L126 691L126 607L148 607L148 637L234 637L234 661L148 661L148 691M126 591L126 568L192 568L126 521L126 499L234 499L234 522L166 522L234 572L234 591L126 591M180 365Q204 365 220.50 381.50Q237 398 237 423Q237 448 220.50 464.50Q204 481 180 481Q156 481 139.50 464.50Q123 448 123 423Q123 398 139.50 381.50Q156 365 180 365M180 457Q195 457 205 447.50Q215 438 215 423Q215 409 205 399Q195 389 180 389Q165 389 155.50 399Q146 409 146 423Q146 438 155.50 447.50Q165 457 180 457M148 313L148 355L126 355L126 290L234 290L234 313L193 313L193 351L171 351L171 313L148 313M213 242L213 200L126 200L126 176L234 176L234 242L213 242M214 129L234 137L234 163L126 119L126 96L234 54L234 79L214 86L214 129M193 94L154 108L193 122L193 94M126 16L126 40L234 40L234 16L126 16M234-26L234 0L193-24Q183-4 162-4Q146-4 136-14.50Q126-25 126-42L126-86L234-86L234-63L197-63L197-47L234-26M147-44Q147-37 151-32.50Q155-28 161-28Q168-28 172-32.50Q176-37 176-44L176-63L147-63L147-44M126-102L148-102L148-132L234-132L234-156L148-156L148-186L126-186L126-102Z"  horiz-adv-x="357" vert-adv-y="1000"  />

      
      <glyph glyph-name="uni55" unicode="&#x55;" d="M593 242Q593 168 562.50 110.50Q532 53 475 21Q418-11 340-11Q263-11 206 21Q149 53 118.50 110.50Q88 168 88 242L88 707Q88 715 97 715L136 715Q144 715 144 707L144 245Q144 151 195.50 96Q247 41 340 41Q433 41 485 96Q537 151 537 245L537 707Q537 715 545 715L584 715Q593 715 593 707L593 242Z"  horiz-adv-x="681" vert-adv-y="1000"  />

      
      <glyph glyph-name="unida" unicode="&#xda;" d="M148 691L126 691L126 607L148 607L148 637L234 637L234 661L148 661L148 691M126 591L126 568L192 568L126 521L126 499L234 499L234 522L166 522L234 572L234 591L126 591M180 365Q204 365 220.50 381.50Q237 398 237 423Q237 448 220.50 464.50Q204 481 180 481Q156 481 139.50 464.50Q123 448 123 423Q123 398 139.50 381.50Q156 365 180 365M180 457Q195 457 205 447.50Q215 438 215 423Q215 409 205 399Q195 389 180 389Q165 389 155.50 399Q146 409 146 423Q146 438 155.50 447.50Q165 457 180 457M148 313L148 355L126 355L126 290L234 290L234 313L193 313L193 351L171 351L171 313L148 313M213 242L213 200L126 200L126 176L234 176L234 242L213 242M214 129L234 137L234 163L126 119L126 96L234 54L234 79L214 86L214 129M193 94L154 108L193 122L193 94M126 16L126 40L234 40L234 16L126 16M234-26L234 0L193-24Q183-4 162-4Q146-4 136-14.50Q126-25 126-42L126-86L234-86L234-63L197-63L197-47L234-26M147-44Q147-37 151-32.50Q155-28 161-28Q168-28 172-32.50Q176-37 176-44L176-63L147-63L147-44M126-102L148-102L148-132L234-132L234-156L148-156L148-186L126-186L126-102Z"  horiz-adv-x="357" vert-adv-y="1000"  />

      
      <glyph glyph-name="unidb" unicode="&#xdb;" d="M148 691L126 691L126 607L148 607L148 637L234 637L234 661L148 661L148 691M126 591L126 568L192 568L126 521L126 499L234 499L234 522L166 522L234 572L234 591L126 591M180 365Q204 365 220.50 381.50Q237 398 237 423Q237 448 220.50 464.50Q204 481 180 481Q156 481 139.50 464.50Q123 448 123 423Q123 398 139.50 381.50Q156 365 180 365M180 457Q195 457 205 447.50Q215 438 215 423Q215 409 205 399Q195 389 180 389Q165 389 155.50 399Q146 409 146 423Q146 438 155.50 447.50Q165 457 180 457M148 313L148 355L126 355L126 290L234 290L234 313L193 313L193 351L171 351L171 313L148 313M213 242L213 200L126 200L126 176L234 176L234 242L213 242M214 129L234 137L234 163L126 119L126 96L234 54L234 79L214 86L214 129M193 94L154 108L193 122L193 94M126 16L126 40L234 40L234 16L126 16M234-26L234 0L193-24Q183-4 162-4Q146-4 136-14.50Q126-25 126-42L126-86L234-86L234-63L197-63L197-47L234-26M147-44Q147-37 151-32.50Q155-28 161-28Q168-28 172-32.50Q176-37 176-44L176-63L147-63L147-44M126-102L148-102L148-132L234-132L234-156L148-156L148-186L126-186L126-102Z"  horiz-adv-x="357" vert-adv-y="1000"  />

      
      <glyph glyph-name="unidc" unicode="&#xdc;" d="M148 691L126 691L126 607L148 607L148 637L234 637L234 661L148 661L148 691M126 591L126 568L192 568L126 521L126 499L234 499L234 522L166 522L234 572L234 591L126 591M180 365Q204 365 220.50 381.50Q237 398 237 423Q237 448 220.50 464.50Q204 481 180 481Q156 481 139.50 464.50Q123 448 123 423Q123 398 139.50 381.50Q156 365 180 365M180 457Q195 457 205 447.50Q215 438 215 423Q215 409 205 399Q195 389 180 389Q165 389 155.50 399Q146 409 146 423Q146 438 155.50 447.50Q165 457 180 457M148 313L148 355L126 355L126 290L234 290L234 313L193 313L193 351L171 351L171 313L148 313M213 242L213 200L126 200L126 176L234 176L234 242L213 242M214 129L234 137L234 163L126 119L126 96L234 54L234 79L214 86L214 129M193 94L154 108L193 122L193 94M126 16L126 40L234 40L234 16L126 16M234-26L234 0L193-24Q183-4 162-4Q146-4 136-14.50Q126-25 126-42L126-86L234-86L234-63L197-63L197-47L234-26M147-44Q147-37 151-32.50Q155-28 161-28Q168-28 172-32.50Q176-37 176-44L176-63L147-63L147-44M126-102L148-102L148-132L234-132L234-156L148-156L148-186L126-186L126-102Z"  horiz-adv-x="357" vert-adv-y="1000"  />

      
      <glyph glyph-name="unid9" unicode="&#xd9;" d="M148 691L126 691L126 607L148 607L148 637L234 637L234 661L148 661L148 691M126 591L126 568L192 568L126 521L126 499L234 499L234 522L166 522L234 572L234 591L126 591M180 365Q204 365 220.50 381.50Q237 398 237 423Q237 448 220.50 464.50Q204 481 180 481Q156 481 139.50 464.50Q123 448 123 423Q123 398 139.50 381.50Q156 365 180 365M180 457Q195 457 205 447.50Q215 438 215 423Q215 409 205 399Q195 389 180 389Q165 389 155.50 399Q146 409 146 423Q146 438 155.50 447.50Q165 457 180 457M148 313L148 355L126 355L126 290L234 290L234 313L193 313L193 351L171 351L171 313L148 313M213 242L213 200L126 200L126 176L234 176L234 242L213 242M214 129L234 137L234 163L126 119L126 96L234 54L234 79L214 86L214 129M193 94L154 108L193 122L193 94M126 16L126 40L234 40L234 16L126 16M234-26L234 0L193-24Q183-4 162-4Q146-4 136-14.50Q126-25 126-42L126-86L234-86L234-63L197-63L197-47L234-26M147-44Q147-37 151-32.50Q155-28 161-28Q168-28 172-32.50Q176-37 176-44L176-63L147-63L147-44M126-102L148-102L148-132L234-132L234-156L148-156L148-186L126-186L126-102Z"  horiz-adv-x="357" vert-adv-y="1000"  />

      
      <glyph glyph-name="uni0170" unicode="&#x0170;" d="M148 691L126 691L126 607L148 607L148 637L234 637L234 661L148 661L148 691M126 591L126 568L192 568L126 521L126 499L234 499L234 522L166 522L234 572L234 591L126 591M180 365Q204 365 220.50 381.50Q237 398 237 423Q237 448 220.50 464.50Q204 481 180 481Q156 481 139.50 464.50Q123 448 123 423Q123 398 139.50 381.50Q156 365 180 365M180 457Q195 457 205 447.50Q215 438 215 423Q215 409 205 399Q195 389 180 389Q165 389 155.50 399Q146 409 146 423Q146 438 155.50 447.50Q165 457 180 457M148 313L148 355L126 355L126 290L234 290L234 313L193 313L193 351L171 351L171 313L148 313M213 242L213 200L126 200L126 176L234 176L234 242L213 242M214 129L234 137L234 163L126 119L126 96L234 54L234 79L214 86L214 129M193 94L154 108L193 122L193 94M126 16L126 40L234 40L234 16L126 16M234-26L234 0L193-24Q183-4 162-4Q146-4 136-14.50Q126-25 126-42L126-86L234-86L234-63L197-63L197-47L234-26M147-44Q147-37 151-32.50Q155-28 161-28Q168-28 172-32.50Q176-37 176-44L176-63L147-63L147-44M126-102L148-102L148-132L234-132L234-156L148-156L148-186L126-186L126-102Z"  horiz-adv-x="357" vert-adv-y="1000"  />

      
      <glyph glyph-name="uni016A" unicode="&#x016A;" d="M148 691L126 691L126 607L148 607L148 637L234 637L234 661L148 661L148 691M126 591L126 568L192 568L126 521L126 499L234 499L234 522L166 522L234 572L234 591L126 591M180 365Q204 365 220.50 381.50Q237 398 237 423Q237 448 220.50 464.50Q204 481 180 481Q156 481 139.50 464.50Q123 448 123 423Q123 398 139.50 381.50Q156 365 180 365M180 457Q195 457 205 447.50Q215 438 215 423Q215 409 205 399Q195 389 180 389Q165 389 155.50 399Q146 409 146 423Q146 438 155.50 447.50Q165 457 180 457M148 313L148 355L126 355L126 290L234 290L234 313L193 313L193 351L171 351L171 313L148 313M213 242L213 200L126 200L126 176L234 176L234 242L213 242M214 129L234 137L234 163L126 119L126 96L234 54L234 79L214 86L214 129M193 94L154 108L193 122L193 94M126 16L126 40L234 40L234 16L126 16M234-26L234 0L193-24Q183-4 162-4Q146-4 136-14.50Q126-25 126-42L126-86L234-86L234-63L197-63L197-47L234-26M147-44Q147-37 151-32.50Q155-28 161-28Q168-28 172-32.50Q176-37 176-44L176-63L147-63L147-44M126-102L148-102L148-132L234-132L234-156L148-156L148-186L126-186L126-102Z"  horiz-adv-x="357" vert-adv-y="1000"  />

      
      <glyph glyph-name="uni0172" unicode="&#x0172;" d="M148 691L126 691L126 607L148 607L148 637L234 637L234 661L148 661L148 691M126 591L126 568L192 568L126 521L126 499L234 499L234 522L166 522L234 572L234 591L126 591M180 365Q204 365 220.50 381.50Q237 398 237 423Q237 448 220.50 464.50Q204 481 180 481Q156 481 139.50 464.50Q123 448 123 423Q123 398 139.50 381.50Q156 365 180 365M180 457Q195 457 205 447.50Q215 438 215 423Q215 409 205 399Q195 389 180 389Q165 389 155.50 399Q146 409 146 423Q146 438 155.50 447.50Q165 457 180 457M148 313L148 355L126 355L126 290L234 290L234 313L193 313L193 351L171 351L171 313L148 313M213 242L213 200L126 200L126 176L234 176L234 242L213 242M214 129L234 137L234 163L126 119L126 96L234 54L234 79L214 86L214 129M193 94L154 108L193 122L193 94M126 16L126 40L234 40L234 16L126 16M234-26L234 0L193-24Q183-4 162-4Q146-4 136-14.50Q126-25 126-42L126-86L234-86L234-63L197-63L197-47L234-26M147-44Q147-37 151-32.50Q155-28 161-28Q168-28 172-32.50Q176-37 176-44L176-63L147-63L147-44M126-102L148-102L148-132L234-132L234-156L148-156L148-186L126-186L126-102Z"  horiz-adv-x="357" vert-adv-y="1000"  />

      
      <glyph glyph-name="uni016E" unicode="&#x016E;" d="M148 691L126 691L126 607L148 607L148 637L234 637L234 661L148 661L148 691M126 591L126 568L192 568L126 521L126 499L234 499L234 522L166 522L234 572L234 591L126 591M180 365Q204 365 220.50 381.50Q237 398 237 423Q237 448 220.50 464.50Q204 481 180 481Q156 481 139.50 464.50Q123 448 123 423Q123 398 139.50 381.50Q156 365 180 365M180 457Q195 457 205 447.50Q215 438 215 423Q215 409 205 399Q195 389 180 389Q165 389 155.50 399Q146 409 146 423Q146 438 155.50 447.50Q165 457 180 457M148 313L148 355L126 355L126 290L234 290L234 313L193 313L193 351L171 351L171 313L148 313M213 242L213 200L126 200L126 176L234 176L234 242L213 242M214 129L234 137L234 163L126 119L126 96L234 54L234 79L214 86L214 129M193 94L154 108L193 122L193 94M126 16L126 40L234 40L234 16L126 16M234-26L234 0L193-24Q183-4 162-4Q146-4 136-14.50Q126-25 126-42L126-86L234-86L234-63L197-63L197-47L234-26M147-44Q147-37 151-32.50Q155-28 161-28Q168-28 172-32.50Q176-37 176-44L176-63L147-63L147-44M126-102L148-102L148-132L234-132L234-156L148-156L148-186L126-186L126-102Z"  horiz-adv-x="357" vert-adv-y="1000"  />

      
      <glyph glyph-name="uni56" unicode="&#x56;" d="M281 0Q275 0 271 7L9 705L9 708Q9 715 16 715L57 715Q65 715 67 708L306 62L309 62L548 708Q550 715 557 715L599 715Q603 715 604.50 712Q606 709 605 705L344 7Q341 0 334 0L281 0Z"  horiz-adv-x="614" vert-adv-y="1000"  />

      
      <glyph glyph-name="uni57" unicode="&#x57;" d="M224 0Q217 0 215 7L15 705L14 708Q14 715 22 715L64 715Q71 715 72 708L193 276Q219 181 247 68L248 68Q251 80 268 135L311 282L441 695Q443 703 450 703L491 703Q498 703 500 695L630 282Q650 215 693 68L694 68Q722 181 748 276L869 708Q870 715 878 715L919 715Q924 715 925.50 712Q927 709 926 705L726 7Q724 0 718 0L671 0Q666 0 662 7L531 423Q488 563 471 628L470 628Q446 534 411 423L279 7Q276 0 270 0L224 0Z"  horiz-adv-x="941" vert-adv-y="1000"  />

      
      <glyph glyph-name="uni1E82" unicode="&#x1E82;" d="M148 691L126 691L126 607L148 607L148 637L234 637L234 661L148 661L148 691M126 591L126 568L192 568L126 521L126 499L234 499L234 522L166 522L234 572L234 591L126 591M180 365Q204 365 220.50 381.50Q237 398 237 423Q237 448 220.50 464.50Q204 481 180 481Q156 481 139.50 464.50Q123 448 123 423Q123 398 139.50 381.50Q156 365 180 365M180 457Q195 457 205 447.50Q215 438 215 423Q215 409 205 399Q195 389 180 389Q165 389 155.50 399Q146 409 146 423Q146 438 155.50 447.50Q165 457 180 457M148 313L148 355L126 355L126 290L234 290L234 313L193 313L193 351L171 351L171 313L148 313M213 242L213 200L126 200L126 176L234 176L234 242L213 242M214 129L234 137L234 163L126 119L126 96L234 54L234 79L214 86L214 129M193 94L154 108L193 122L193 94M126 16L126 40L234 40L234 16L126 16M234-26L234 0L193-24Q183-4 162-4Q146-4 136-14.50Q126-25 126-42L126-86L234-86L234-63L197-63L197-47L234-26M147-44Q147-37 151-32.50Q155-28 161-28Q168-28 172-32.50Q176-37 176-44L176-63L147-63L147-44M126-102L148-102L148-132L234-132L234-156L148-156L148-186L126-186L126-102Z"  horiz-adv-x="357" vert-adv-y="1000"  />

      
      <glyph glyph-name="uni0174" unicode="&#x0174;" d="M148 691L126 691L126 607L148 607L148 637L234 637L234 661L148 661L148 691M126 591L126 568L192 568L126 521L126 499L234 499L234 522L166 522L234 572L234 591L126 591M180 365Q204 365 220.50 381.50Q237 398 237 423Q237 448 220.50 464.50Q204 481 180 481Q156 481 139.50 464.50Q123 448 123 423Q123 398 139.50 381.50Q156 365 180 365M180 457Q195 457 205 447.50Q215 438 215 423Q215 409 205 399Q195 389 180 389Q165 389 155.50 399Q146 409 146 423Q146 438 155.50 447.50Q165 457 180 457M148 313L148 355L126 355L126 290L234 290L234 313L193 313L193 351L171 351L171 313L148 313M213 242L213 200L126 200L126 176L234 176L234 242L213 242M214 129L234 137L234 163L126 119L126 96L234 54L234 79L214 86L214 129M193 94L154 108L193 122L193 94M126 16L126 40L234 40L234 16L126 16M234-26L234 0L193-24Q183-4 162-4Q146-4 136-14.50Q126-25 126-42L126-86L234-86L234-63L197-63L197-47L234-26M147-44Q147-37 151-32.50Q155-28 161-28Q168-28 172-32.50Q176-37 176-44L176-63L147-63L147-44M126-102L148-102L148-132L234-132L234-156L148-156L148-186L126-186L126-102Z"  horiz-adv-x="357" vert-adv-y="1000"  />

      
      <glyph glyph-name="uni1E84" unicode="&#x1E84;" d="M148 691L126 691L126 607L148 607L148 637L234 637L234 661L148 661L148 691M126 591L126 568L192 568L126 521L126 499L234 499L234 522L166 522L234 572L234 591L126 591M180 365Q204 365 220.50 381.50Q237 398 237 423Q237 448 220.50 464.50Q204 481 180 481Q156 481 139.50 464.50Q123 448 123 423Q123 398 139.50 381.50Q156 365 180 365M180 457Q195 457 205 447.50Q215 438 215 423Q215 409 205 399Q195 389 180 389Q165 389 155.50 399Q146 409 146 423Q146 438 155.50 447.50Q165 457 180 457M148 313L148 355L126 355L126 290L234 290L234 313L193 313L193 351L171 351L171 313L148 313M213 242L213 200L126 200L126 176L234 176L234 242L213 242M214 129L234 137L234 163L126 119L126 96L234 54L234 79L214 86L214 129M193 94L154 108L193 122L193 94M126 16L126 40L234 40L234 16L126 16M234-26L234 0L193-24Q183-4 162-4Q146-4 136-14.50Q126-25 126-42L126-86L234-86L234-63L197-63L197-47L234-26M147-44Q147-37 151-32.50Q155-28 161-28Q168-28 172-32.50Q176-37 176-44L176-63L147-63L147-44M126-102L148-102L148-132L234-132L234-156L148-156L148-186L126-186L126-102Z"  horiz-adv-x="357" vert-adv-y="1000"  />

      
      <glyph glyph-name="uni1E80" unicode="&#x1E80;" d="M148 691L126 691L126 607L148 607L148 637L234 637L234 661L148 661L148 691M126 591L126 568L192 568L126 521L126 499L234 499L234 522L166 522L234 572L234 591L126 591M180 365Q204 365 220.50 381.50Q237 398 237 423Q237 448 220.50 464.50Q204 481 180 481Q156 481 139.50 464.50Q123 448 123 423Q123 398 139.50 381.50Q156 365 180 365M180 457Q195 457 205 447.50Q215 438 215 423Q215 409 205 399Q195 389 180 389Q165 389 155.50 399Q146 409 146 423Q146 438 155.50 447.50Q165 457 180 457M148 313L148 355L126 355L126 290L234 290L234 313L193 313L193 351L171 351L171 313L148 313M213 242L213 200L126 200L126 176L234 176L234 242L213 242M214 129L234 137L234 163L126 119L126 96L234 54L234 79L214 86L214 129M193 94L154 108L193 122L193 94M126 16L126 40L234 40L234 16L126 16M234-26L234 0L193-24Q183-4 162-4Q146-4 136-14.50Q126-25 126-42L126-86L234-86L234-63L197-63L197-47L234-26M147-44Q147-37 151-32.50Q155-28 161-28Q168-28 172-32.50Q176-37 176-44L176-63L147-63L147-44M126-102L148-102L148-132L234-132L234-156L148-156L148-186L126-186L126-102Z"  horiz-adv-x="357" vert-adv-y="1000"  />

      
      </font>
</defs>
</svg>
